<svg width="20" height="20" viewBox="0 0 20 20" fill="none" xmlns="http://www.w3.org/2000/svg">
<path d="M16.8028 3.41078L12.5511 1.80893C11.7858 1.556 11.0205 1.64031 10.4253 2.06185C10.1702 2.23047 10.0001 2.39908 9.83001 2.5677H6.59873C5.32322 2.5677 4.21777 3.66371 4.21777 4.92833V5.77141C4.21777 6.10864 4.47288 6.44588 4.89805 6.44588C5.32322 6.44588 5.57832 6.10864 5.57832 5.77141V4.92833C5.57832 4.33818 6.08852 3.91663 6.59873 3.91663H9.40484V16.1413H6.59873C6.00349 16.1413 5.57832 15.6355 5.57832 15.1296V14.2866C5.57832 13.9493 5.32322 13.6121 4.89805 13.6121C4.47288 13.6121 4.21777 13.865 4.21777 14.2022V15.0453C4.21777 16.3099 5.23819 17.4059 6.59873 17.4059H9.83001C10.0001 17.5746 10.1702 17.8275 10.3403 17.9118C10.7654 18.1647 11.1906 18.3333 11.7008 18.3333C11.9558 18.3333 12.296 18.249 12.5511 18.1647L16.8028 16.5628C17.7382 16.2257 18.3334 15.3826 18.3334 14.3708V5.51848C18.3334 4.5911 17.6532 3.66371 16.8028 3.41078Z" fill="black"/>
<path d="M5.32346 11.2514C5.06835 11.5043 5.06835 11.9259 5.32346 12.1788C5.40849 12.2632 5.57856 12.3474 5.74863 12.3474C5.91869 12.3474 6.08876 12.2632 6.17379 12.1788L7.87448 10.4927C7.95951 10.4083 7.95951 10.3241 8.04454 10.3241C8.04454 10.2398 8.12958 10.1554 8.12958 10.0712C8.12958 9.98684 8.12957 9.9025 8.04454 9.81825C8.04454 9.73392 7.95951 9.64959 7.87448 9.64959L6.17379 7.96344C5.91869 7.71051 5.49353 7.71051 5.23842 7.96344C4.98332 8.21636 4.98332 8.63792 5.23842 8.89084L5.83366 9.481H2.34727C2.00713 9.481 1.66699 9.73392 1.66699 10.1554C1.66699 10.577 1.92209 10.8299 2.34727 10.8299H5.91869L5.32346 11.2514Z" fill="black"/>
</svg>
