<svg width="24" height="24" viewBox="0 0 24 24" fill="none" xmlns="http://www.w3.org/2000/svg">
<path d="M12 5.85292L11.4973 6.35313C11.6288 6.49441 11.8103 6.57424 12 6.57424C12.1897 6.57424 12.3712 6.49441 12.5027 6.35313L12 5.85292ZM9.60563 18.1839C8.19571 17.0348 6.65402 15.9126 5.43097 14.4887C4.23183 13.0926 3.39535 11.4637 3.39535 9.35032H2C2 11.9139 3.03302 13.8696 4.38765 15.4466C5.71835 16.9958 7.41467 18.2351 8.74179 19.3168L9.60563 18.1839ZM3.39535 9.35032C3.39535 7.28171 4.52593 5.54698 6.06917 4.81765C7.56844 4.10911 9.58294 4.29675 11.4973 6.35313L12.5027 5.35271C10.2312 2.91272 7.5945 2.51058 5.48908 3.50559C3.42764 4.47981 2 6.74197 2 9.35032H3.39535ZM8.74179 19.3168C9.21828 19.7052 9.72981 20.1193 10.2482 20.4325C10.7664 20.7455 11.3578 21 12 21V19.5574C11.712 19.5574 11.3731 19.4413 10.9522 19.1869C10.5314 18.9327 10.095 18.5827 9.60563 18.1839L8.74179 19.3168ZM15.2582 19.3168C16.5853 18.2351 18.2817 16.9958 19.6124 15.4466C20.967 13.8696 22 11.9139 22 9.35032H20.6047C20.6047 11.4637 19.7682 13.0926 18.569 14.4887C17.346 15.9126 15.8043 17.0348 14.3944 18.1839L15.2582 19.3168ZM22 9.35032C22 6.74197 20.5724 4.47981 18.5109 3.50559C16.4055 2.51058 13.7688 2.91272 11.4973 5.35271L12.5027 6.35313C14.417 4.29675 16.4315 4.10911 17.9308 4.81765C19.474 5.54698 20.6047 7.28171 20.6047 9.35032H22ZM14.3944 18.1839C13.905 18.5827 13.4686 18.9327 13.0478 19.1869C12.6269 19.4413 12.288 19.5574 12 19.5574V21C12.6422 21 13.2336 20.7455 13.7518 20.4325C14.2702 20.1193 14.7817 19.7052 15.2582 19.3168L14.3944 18.1839Z" fill="#999999"/>
<path d="M9.1737 18.7504L9.60563 18.1839M9.60563 18.1839C8.19571 17.0348 6.65402 15.9126 5.43097 14.4887C4.23183 13.0926 3.39535 11.4637 3.39535 9.35032M9.60563 18.1839L8.74179 19.3168M9.60563 18.1839C10.095 18.5827 10.5314 18.9327 10.9522 19.1869C11.3731 19.4413 11.712 19.5574 12 19.5574M11.4973 6.35313L12 5.85292L12.5027 6.35313M11.4973 6.35313C11.6288 6.49441 11.8103 6.57424 12 6.57424C12.1897 6.57424 12.3712 6.49441 12.5027 6.35313M11.4973 6.35313C9.58294 4.29675 7.56844 4.10911 6.06917 4.81765C4.52593 5.54698 3.39535 7.28171 3.39535 9.35032M11.4973 6.35313L12.5027 5.35271C10.2312 2.91272 7.5945 2.51058 5.48908 3.50559C3.42764 4.47981 2 6.74197 2 9.35032M12.5027 6.35313L11.4973 5.35271C13.7688 2.91272 16.4055 2.51058 18.5109 3.50559C20.5724 4.47981 22 6.74197 22 9.35032M12.5027 6.35313C14.417 4.29675 16.4315 4.10911 17.9308 4.81765C19.474 5.54698 20.6047 7.28171 20.6047 9.35032M14.8263 18.7504L15.2582 19.3168M15.2582 19.3168C16.5853 18.2351 18.2817 16.9958 19.6124 15.4466C20.967 13.8696 22 11.9139 22 9.35032M15.2582 19.3168L14.3944 18.1839M15.2582 19.3168C14.7817 19.7052 14.2702 20.1193 13.7518 20.4325C13.2336 20.7455 12.6422 21 12 21M3.39535 9.35032H2M2 9.35032C2 11.9139 3.03302 13.8696 4.38765 15.4466C5.71835 16.9958 7.41467 18.2351 8.74179 19.3168M8.74179 19.3168C9.21828 19.7052 9.72981 20.1193 10.2482 20.4325C10.7664 20.7455 11.3578 21 12 21M12 21V19.5574M12 19.5574C12.288 19.5574 12.6269 19.4413 13.0478 19.1869C13.4686 18.9327 13.905 18.5827 14.3944 18.1839M22 9.35032H20.6047M20.6047 9.35032C20.6047 11.4637 19.7682 13.0926 18.569 14.4887C17.346 15.9126 15.8043 17.0348 14.3944 18.1839" stroke="#999999" stroke-width="0.2"/>
<path d="M12 5.85292L11.4973 6.35313C11.6288 6.49441 4.81033 10 5 10C5.18967 10 12.3712 6.49441 12.5027 6.35313L12 5.85292ZM11.569 18.3869C10.1591 17.2378 15.8431 17.0949 14.62 15.6711C13.4209 14.275 12.5844 12.646 12.5844 10.5327L2 9.35033C2 11.9139 3.03302 13.8696 4.38765 15.4466C5.71835 16.9958 7.41467 18.2351 8.74179 19.3168L11.569 18.3869ZM12.5844 10.5327C12.5844 8.46406 13.715 6.72933 15.2582 6C16.7575 5.29146 9.58294 4.29675 11.4973 6.35313L12.5027 5.35271C10.2312 2.91272 7.5945 2.51058 5.48908 3.50559C3.42764 4.47981 2 6.74197 2 9.35033L12.5844 10.5327ZM8.74179 19.3168C9.21828 19.7052 9.7298 20.1193 10.2482 20.4325C10.7664 20.7455 11.3578 21 12 21L10.7229 18.475C10.4349 18.475 11.3731 19.4413 10.9522 19.1869C10.5314 18.9327 12.0584 18.7857 11.569 18.3869L8.74179 19.3168ZM15.2582 19.3168C16.5853 18.2351 18.2817 16.9958 19.6124 15.4466C20.967 13.8696 22 11.9139 22 9.35033L9.60563 13.3807C9.60563 15.4941 12.7682 16.5184 11.569 17.9145C10.346 19.3384 14.5272 15.9524 13.1173 17.1015L15.2582 19.3168ZM22 9.35033C22 6.74197 20.5724 4.47981 18.5109 3.50559C16.4055 2.51058 13.7688 2.91272 11.4973 5.35271L12.5027 6.35313C14.417 4.29675 9.43154 7.53487 10.9308 8.24341C12.474 8.97274 9.60563 11.3121 9.60563 13.3807L22 9.35033ZM13.1173 17.1015C12.6279 17.5004 12.1915 17.8504 11.7707 18.1045C11.3498 18.3589 11.0109 18.475 10.7229 18.475L12 21C12.6422 21 13.2336 20.7455 13.7518 20.4325C14.2702 20.1193 14.7817 19.7052 15.2582 19.3168L13.1173 17.1015Z" fill="#FE415C"/>
<path d="M9.1737 18.7504L11.569 18.3869M11.569 18.3869C10.1591 17.2378 15.8431 17.0949 14.62 15.6711C13.4209 14.275 12.5844 12.646 12.5844 10.5327M11.569 18.3869L8.74179 19.3168M11.569 18.3869C12.0584 18.7857 10.5314 18.9327 10.9522 19.1869C11.3731 19.4413 10.4349 18.475 10.7229 18.475M11.4973 6.35313L12 5.85292L12.5027 6.35313M11.4973 6.35313C11.6288 6.49441 4.81033 10 5 10C5.18967 10 12.3712 6.49441 12.5027 6.35313M11.4973 6.35313C9.58294 4.29675 16.7575 5.29146 15.2582 6C13.715 6.72933 12.5844 8.46406 12.5844 10.5327M11.4973 6.35313L12.5027 5.35271C10.2312 2.91272 7.5945 2.51058 5.48908 3.50559C3.42764 4.47981 2 6.74197 2 9.35033M12.5027 6.35313L11.4973 5.35271C13.7688 2.91272 16.4055 2.51058 18.5109 3.50559C20.5724 4.47981 22 6.74197 22 9.35033M12.5027 6.35313C14.417 4.29675 9.43154 7.53487 10.9308 8.24341C12.474 8.97274 9.60563 11.3121 9.60563 13.3807M14.8263 18.7504L15.2582 19.3168M15.2582 19.3168C16.5853 18.2351 18.2817 16.9958 19.6124 15.4466C20.967 13.8696 22 11.9139 22 9.35033M15.2582 19.3168L13.1173 17.1015M15.2582 19.3168C14.7817 19.7052 14.2702 20.1193 13.7518 20.4325C13.2336 20.7455 12.6422 21 12 21M12.5844 10.5327L2 9.35033M2 9.35033C2 11.9139 3.03302 13.8696 4.38765 15.4466C5.71835 16.9958 7.41467 18.2351 8.74179 19.3168M8.74179 19.3168C9.21828 19.7052 9.7298 20.1193 10.2482 20.4325C10.7664 20.7455 11.3578 21 12 21M12 21L10.7229 18.475M10.7229 18.475C11.0109 18.475 11.3498 18.3589 11.7707 18.1045C12.1915 17.8504 12.6279 17.5004 13.1173 17.1015M22 9.35033L9.60563 13.3807M9.60563 13.3807C9.60563 15.4941 12.7682 16.5184 11.569 17.9145C10.346 19.3384 14.5272 15.9524 13.1173 17.1015" stroke="#FE415C" stroke-width="0.2"/>
</svg>
