<svg width="438" height="326" viewBox="0 0 438 326" fill="none" xmlns="http://www.w3.org/2000/svg">
<g clip-path="url(#clip0_80_84)">
<path d="M184.329 16.2391C184.684 16.7996 185.066 16.9249 185.69 17.0291C187.087 16.2022 186.426 14.3995 186.039 13.1651C185.587 11.5431 185.162 9.89989 184.78 8.26068C184.302 6.2087 184.036 4.09342 183.485 2.0599C183.272 1.21062 182.847 0.17672 181.888 -0.00131226C181.336 0.263757 181.117 0.340245 180.936 0.948191C180.422 4.17914 181.728 7.39558 182.486 10.5052C182.962 12.3396 183.303 14.6171 184.331 16.2391H184.329Z" fill="#C1D4D6"/>
<path d="M234.105 35.2253C237.46 33.5518 240.629 31.0659 243.717 28.9335C245.304 27.8363 248.648 25.9966 249.335 24.153C249.503 23.7033 249.445 23.2391 249.385 22.7749C249.01 22.3252 248.821 21.8755 248.152 21.9256L247.781 22.0166C245.996 22.9041 244.347 24.3244 242.756 25.5285C240.209 27.4578 237.637 29.3845 235.2 31.4523C234.474 32.0695 232.808 33.2392 232.51 34.1426C232.432 34.3786 232.551 34.6714 232.693 34.8639C233.066 35.3637 233.557 35.2239 234.107 35.2253H234.105Z" fill="#C1D4D6"/>
<path d="M76.7416 96.2163C72.136 96.3706 67.5489 96.542 62.9499 96.8519C61.6014 96.9429 59.5661 96.8018 58.4011 97.4203L58.0736 97.9346L58.2241 98.2459C59.9385 98.8182 62.7373 98.445 64.5652 98.4199C68.9806 98.3593 73.4026 98.2221 77.8167 98.2195C88.2812 98.2353 98.7432 98.5426 109.208 98.4701C111.89 98.4529 114.586 98.6046 117.202 97.936C111.745 95.9657 105.791 96.542 100.086 96.3324C92.3532 96.1306 84.4668 95.8128 76.7429 96.215L76.7416 96.2163Z" fill="#C1D4D6"/>
<path d="M179.797 167.084C182.583 166.568 185.939 166.592 188.761 166.85C189.597 166.969 190.036 166.567 190.633 166.029L192.692 165.741C192.758 153.943 192.951 85.2153 193.207 75.1585C193.656 74.8367 193.742 74.9 194.303 74.9264C194.94 75.9853 194.224 96.2796 194.2 99.6134C194.068 118.184 194 136.76 193.91 155.331C193.904 156.531 193.642 163.729 194.054 164.248C194.701 164.602 195.339 164.491 195.845 163.983C196.351 161.619 196.053 158.646 196.067 156.208C196.09 151.269 196.118 146.33 196.187 141.392C196.337 118.845 196.716 96.2994 196.903 73.7553C201.957 71.8154 212.867 64.6862 210.231 58.2744C209.627 56.8291 208.189 55.8084 206.612 55.7662C205.237 56.0088 204.154 56.444 202.957 57.1654C198.55 59.8253 194.677 63.8119 191.017 67.4042C189.921 68.4803 188.527 69.621 187.652 70.8686C186.916 71.9447 187.248 73.5746 188.349 74.2775C189.264 74.2828 190.074 73.8423 190.901 73.4889L190.185 163.739L180.444 164.26C179.16 164.36 177.86 165.355 178.274 166.756C178.858 167.222 179.052 167.165 179.794 167.084H179.797ZM201.574 61.8535C202.71 60.2104 204.572 59.0248 206.424 58.3562C207.139 58.4195 207.309 58.401 207.907 58.8362C209.804 62.8281 204.489 66.274 201.82 68.4025L200.228 69.5247L201.572 61.8522L201.574 61.8535Z" fill="#C1D4D6"/>
<path d="M226.75 310.06C225.994 309.901 225.355 309.866 224.585 309.915C219.773 309.669 220.756 316.406 224.849 316.546C225.776 316.389 226.346 315.977 226.888 315.206C227.891 313.769 228.38 311.233 226.751 310.059L226.75 310.06Z" fill="#C1D4D6"/>
<path d="M194.264 311.784C193.307 311.975 192.466 312.102 191.633 312.641C190.492 314.531 192.903 319.113 195.328 318.358L196.244 318.028C198.02 317.109 200.356 315.592 198.905 313.356C197.896 311.83 195.948 311.578 194.264 311.784Z" fill="#C1D4D6"/>
<path d="M224.016 175.136C225.692 177.052 226.484 178.708 226.869 181.217C227.352 184.361 227.446 187.661 227.631 190.837C228.737 215.867 227.897 240.936 228.155 265.985C228.155 274.776 228.353 283.563 228.512 292.351C228.653 298.733 228.925 303.56 222.956 307.37C224.206 307.349 225.738 307.468 226.945 307.201C228.439 306.87 230.16 305.777 231.368 304.863C235.156 301.953 236.094 298.155 236.695 293.596C237.354 288.592 237.613 283.556 237.929 278.524C239.185 257.058 238.888 235.56 238.597 214.069C238.074 202.042 239.227 175.551 223.604 173.185L222.435 173.094L222.567 173.357C222.905 173.998 223.536 174.587 224.016 175.136Z" fill="#C1D4D6"/>
<path d="M115.343 36.9779L114.928 37.0108C116.307 39.3952 117.283 41.459 117.747 44.1994C118.218 46.9859 118.136 49.8529 118.113 52.6684C118.073 57.2643 117.881 61.8456 117.667 66.4349C117.327 73.7645 117.105 81.0955 116.709 88.4251C116.665 89.2203 116.362 90.6512 117.07 91.1101C117.455 90.9598 117.306 91.0877 117.513 90.7237C118.169 80.659 118.754 70.5824 119.155 60.5044C119.149 54.4632 121.507 40.2009 115.343 36.9792V36.9779Z" fill="#C1D4D6"/>
<path d="M154.495 311.975L151.328 312.818C151.098 316.323 151.863 319.673 156.094 319.546C161.099 317.899 159.248 312.042 154.495 311.976V311.975Z" fill="#C1D4D6"/>
<path d="M437.523 324.598L437.46 324.572C436.854 324.321 436.214 324.162 435.562 324.104C426.866 323.323 377.845 322.431 376.204 322.34C362.645 322.338 205.991 322.694 192.434 322.875C181.585 322.959 170.706 323.167 159.873 322.57C159.676 322.559 159.577 322.329 159.703 322.177C161.297 320.282 162.863 318.308 162.586 315.652C162.361 312.965 160.621 310.436 157.992 309.62C156.582 309.231 155.081 309.196 153.624 309.361C153.416 309.385 153.28 309.149 153.407 308.981C154.288 307.808 155.328 306.518 155.161 305.003C155.161 304.998 155.159 304.991 155.158 304.986L155.146 304.925C155.129 304.839 155.068 304.769 154.985 304.743C154.166 304.486 152.738 305.037 151.889 305.141C148.075 305.605 145.738 300.884 144.655 297.88C142.461 291.64 142.63 284.88 142.307 278.355C141.7 256.823 142.044 235.284 143.046 213.77C143.4 206.355 143.544 198.895 144.63 191.537C145.681 183.484 148.994 175.653 157.3 172.912C166.151 170.361 175.556 170.682 184.684 170.609C198.699 170.74 206.505 169.91 208.277 186.511C209.531 197.615 209.298 208.821 209.475 219.977C209.632 240.041 209.58 260.103 209.644 280.168C209.646 284.752 209.762 289.485 209.38 294.051C209.008 302.724 199.918 305.346 192.568 305.114C191.304 305.037 190.049 304.854 188.785 304.798C188.537 304.788 188.471 304.45 188.697 304.345C189.722 303.866 190.852 303.275 191.427 302.45C191.458 302.405 191.472 302.348 191.468 302.294L191.437 301.918C191.432 301.846 191.392 301.78 191.332 301.739C191.24 301.678 191.152 301.611 191.046 301.607C190.235 301.574 188.842 302.182 188.035 302.406C186.385 302.865 184.675 303.263 182.967 303.422C178.631 303.826 174.198 303.56 169.883 303.071C165.879 302.617 162.068 301.658 158.085 302.152C157.818 302.185 157.798 302.563 158.061 302.621C161.197 303.314 164.057 304.751 167.131 305.707C173.84 307.553 180.941 307.923 187.865 307.585C188.001 307.578 188.113 307.686 188.111 307.822C188.082 312.231 188.629 317.312 192.59 320.001C195.607 321.889 199.976 320.598 201.733 317.569C203.721 314.284 201.875 310.546 198.54 309.12L198.237 308.981C198.021 308.884 198.065 308.567 198.299 308.529C206.011 307.278 211.41 304.227 212.467 295.681C213.283 289.357 213.121 282.745 213.142 276.373C213.156 254.385 212.982 232.4 212.652 210.416C212.565 204.949 212.443 199.476 212.155 194.015C211.574 186.556 211.85 177.019 205.298 172.038C205.29 172.032 205.28 172.026 205.271 172.021L204.543 171.594C204.329 171.467 204.426 171.137 204.675 171.149C206.634 171.246 208.584 171.408 210.533 171.637C213.906 172.037 217.352 172.467 219.765 175.104C222.472 178.062 223.597 182.324 224.166 186.196C225.178 193.074 225.161 200.25 225.284 207.188C225.56 230.723 225.309 254.266 225.344 277.804C225.334 283.95 225.582 290.201 225.224 296.331C225.067 299.022 224.457 301.851 222.291 303.68C221.486 304.359 220.638 304.86 219.669 305.261C218.933 305.566 217.801 305.798 217.206 306.327C217.123 306.401 217.101 306.522 217.154 306.62C217.355 306.991 217.515 307.082 217.898 307.342C217.931 307.365 217.968 307.379 218.007 307.384C219.067 307.537 220.064 307.431 221.08 307.262C221.333 307.22 221.464 307.553 221.251 307.696C216.716 310.862 220.039 318.71 225.018 319.359C228.273 319.823 231.365 316.86 231.939 313.803C232.304 311.47 231.284 309.277 229.434 307.875C229.37 307.826 229.356 307.737 229.403 307.673C229.432 307.634 229.478 307.613 229.527 307.614L229.657 307.619C229.663 307.619 229.671 307.619 229.678 307.619C234.027 307.226 237.715 303.147 238.719 299.039C240.182 293.456 240.286 287.072 240.646 281.329C241.801 257.733 241.837 234.079 241.359 210.463C241.138 199.886 240.969 181.949 232.87 174.066C229.976 171.249 226.38 170.151 222.54 169.278C217.919 168.227 213.449 167.775 208.73 167.498C202.393 167.126 195.985 167.039 189.637 167.202C185.438 167.31 181.204 167.14 177.017 167.331C173.109 167.511 169.111 167.982 165.232 168.481C162.499 168.832 159.863 169.68 157.164 170.082C157.015 170.105 156.883 169.983 156.889 169.833C157.484 156.908 158.499 143.95 158.156 130.989C157.969 120.662 157.221 108.949 149.398 101.288C148.105 99.9642 146.504 98.9804 145.066 97.8371C144.856 97.6696 145.038 97.3359 145.292 97.423C160.474 102.599 162.603 119.867 162.581 134.001C162.733 140.449 162.623 146.901 162.351 153.345C162.182 157.346 161.685 161.379 161.867 165.388C161.879 165.643 162.232 165.701 162.33 165.464C163.625 162.289 164.061 158.891 164.395 155.48C164.876 150.574 165.065 145.674 165.097 140.744C165.139 134.282 165.138 127.818 164.425 121.387C161.935 96.5355 146.928 92.5924 126.901 91.1694C124.771 91.0178 122.583 90.8951 120.349 90.7791C120.215 90.7725 120.111 90.6578 120.12 90.5233C121.134 75.0318 122.523 59.4125 121.829 43.8987C121.829 43.8934 121.829 43.8881 121.829 43.8829C121.57 41.4313 121.16 38.4193 119.503 36.4754C116.52 32.9755 109.306 32.8212 105.025 32.6181C105.021 32.6181 105.017 32.6181 105.012 32.6181L98.1198 32.6616C98.1198 32.6616 98.1079 32.6616 98.1013 32.6616C89.3075 33.35 81.2375 35.2345 79.2696 45.1001C77.505 52.3677 77.4706 60.3211 77.0942 67.7668C76.7218 75.1255 76.2423 82.4775 75.9465 89.8401C75.9412 89.9654 75.8408 90.0643 75.7153 90.0683C71.3184 90.1896 66.9506 90.5694 62.5616 90.7132C55.4954 90.7448 48.4464 91.1523 41.4106 91.7879C30.5801 92.5924 18.4923 93.9415 10.6178 102.205C3.34291 110.128 3.13555 121.608 2.41704 131.755C2.06571 137.801 1.79759 143.855 1.5057 149.903C-0.206039 191.896 -1.01304 234.087 2.2176 276.022C2.60327 279.786 2.87403 283.615 4.06406 287.233C5.41786 291.577 8.35529 295.64 12.805 297.118C12.9001 297.15 12.9661 297.237 12.9675 297.338C13.0414 301.261 14.3252 305.303 18.1119 307.114C18.3682 307.245 18.3193 307.208 18.4606 307.359C18.5187 307.421 18.5399 307.51 18.5161 307.591C17.8914 309.789 17.4238 312.05 18.5953 314.169C20.4127 317.571 25.0342 318.494 28.1974 316.439C30.9764 314.825 32.4372 310.821 30.4573 308.073C28.7403 305.777 25.7764 304.663 22.9552 304.9L22.8615 304.779C23.6936 303.303 24.4292 302.003 25.6747 300.837C25.7183 300.796 25.7778 300.772 25.8385 300.771C44.6756 300.568 63.5324 301.681 82.3681 302.207C88.2417 302.452 94.1205 302.647 100.001 302.711C106.313 302.799 114.647 303.581 118.192 297.275C118.297 297.088 118.115 296.867 117.91 296.932C109.67 299.57 100.933 298.979 92.3876 298.715C85.7414 298.501 79.0965 298.261 72.4517 298.036C57.017 297.512 41.3749 297.57 26.0221 295.791C21.8788 295.311 16.457 294.805 12.7535 292.861C9.9574 291.395 8.54152 288.959 7.64074 286.043C6.6594 282.864 6.42166 279.31 6.06637 276.009C5.33201 269.192 4.85521 262.386 4.5369 255.539C2.77497 210.828 3.21744 165.894 6.90771 121.307C8.22057 110.572 14.3767 101.967 25.0011 98.8683C29.7639 97.4388 34.7604 96.8928 39.6896 96.3521C70.4243 93.3375 101.57 92.5093 132.315 95.7719C142.585 96.5394 151 103.808 153.624 113.698C154.869 118.014 155.159 122.416 155.348 126.883C155.703 141.417 155.656 156.13 154.12 170.595C154.111 170.68 154.058 170.752 153.98 170.787C143.198 175.661 141.765 186.951 140.612 197.481C139.113 211.982 138.859 226.565 138.504 241.129C138.278 252.185 138.185 263.251 138.431 274.307C138.562 280.136 138.594 286.038 139.31 291.831C139.732 295.247 140.381 298.859 142.05 301.913C143.417 304.415 145.638 306.589 148.16 307.919C148.549 308.123 148.602 307.962 148.542 308.441C147.923 313.848 148.613 320.196 154.244 322.406C154.48 322.499 154.421 322.847 154.169 322.865C153.367 322.925 152.441 322.859 151.765 322.876C148.644 322.954 145.521 323.026 142.403 323.167C140.51 323.349 138.134 322.919 136.57 324.185C136.526 324.221 136.497 324.274 136.486 324.33L136.429 324.65C136.415 324.729 136.441 324.812 136.502 324.866C137.121 325.42 137.787 325.483 138.622 325.577C140.096 325.742 141.656 325.662 143.14 325.674C157.294 325.818 171.467 325.913 185.622 325.777C195.405 325.703 205.187 325.533 214.971 325.482C221.469 325.447 228.13 325.701 234.608 325.211C235.962 325.11 430.658 326.419 436.548 325.864L437.56 325.847C437.599 325.843 438.017 325.519 438.013 325.297C438.007 324.991 437.82 324.716 437.538 324.598H437.523ZM198.905 313.356C200.356 315.592 198.02 317.109 196.244 318.028L195.328 318.358C192.905 319.113 190.493 314.531 191.633 312.641C192.467 312.102 193.307 311.975 194.264 311.784C195.948 311.578 197.896 311.83 198.905 313.356ZM226.888 315.207C226.346 315.979 225.776 316.39 224.849 316.547C220.756 316.407 219.773 309.669 224.585 309.916C225.355 309.866 225.994 309.902 226.75 310.062C228.378 311.234 227.89 313.771 226.887 315.209L226.888 315.207ZM223.604 173.187C239.227 175.554 238.074 202.044 238.597 214.071C238.888 235.561 239.185 257.06 237.929 278.525C237.613 283.557 237.356 288.594 236.695 293.597C236.094 298.155 235.158 301.954 231.369 304.864C230.16 305.778 228.439 306.871 226.945 307.202C225.738 307.47 224.206 307.35 222.956 307.371C228.925 303.563 228.653 298.735 228.512 292.352C228.353 283.564 228.156 274.776 228.155 265.986C227.898 240.938 228.738 215.868 227.631 190.838C227.446 187.663 227.352 184.362 226.869 181.218C226.483 178.71 225.69 177.053 224.016 175.137C223.536 174.589 222.905 173.999 222.567 173.358L222.435 173.096L223.604 173.187ZM22.8575 307.4L24.0158 307.45C28.6148 307.926 29.3227 312.368 25.3828 314.544C23.547 314.963 21.3809 314.315 20.7126 312.408C19.8844 310.502 20.8592 308.073 22.8575 307.399V307.4ZM16.4306 298.36L23.0147 299.039L20.6175 302.613L19.0589 305.391L17.7963 303.295C17.1227 302.063 16.0224 299.723 16.4292 298.36H16.4306ZM115.433 63.291C115.062 72.4299 114.61 81.6138 114.472 90.7554C113.829 91.0824 108.889 90.5641 107.661 90.4995C98.9004 90.0643 89.9534 90.0656 81.1728 90.2753C81.8926 80.0035 82.3826 69.7542 83.4036 59.5022C83.6981 56.5456 83.9557 49.3267 85.6846 47.0492C86.6356 45.7951 88.0079 45.1291 89.5175 44.7981C93.1286 44.0042 96.976 44.9445 100.656 44.6412C104.434 44.3299 107.929 43.1892 111.631 42.6723L112.086 42.638C115.915 42.3056 115.618 44.9115 115.813 47.8167C116.052 52.9427 115.639 58.165 115.431 63.291H115.433ZM156.093 319.546C151.861 319.673 151.096 316.323 151.326 312.818L154.494 311.975C159.247 312.042 161.097 317.899 156.093 319.545V319.546Z" fill="#C1D4D6"/>
<path d="M20.7139 312.409C21.3822 314.316 23.5483 314.963 25.3841 314.545C29.3227 312.368 28.6148 307.928 24.0171 307.452L22.8588 307.402C20.8605 308.074 19.8857 310.505 20.7139 312.41V312.409Z" fill="#C1D4D6"/>
<path d="M19.0602 305.391L20.6188 302.613L23.016 299.039L16.4319 298.36C16.0238 299.723 17.124 302.063 17.7989 303.295L19.0616 305.391H19.0602Z" fill="#C1D4D6"/>
<path d="M79.1124 85.0412C79.5588 74.6217 80.2866 64.1732 81.499 53.8144C81.7394 51.7571 82.0749 49.7117 82.5134 47.6888C82.8476 46.1472 83.8289 44.0134 83.7127 42.4731L83.5647 42.3254C81.1583 44.3484 80.902 48.4101 80.5203 51.3285C80.1201 54.3854 79.8599 57.4739 79.5958 60.5453L77.7586 90.1342L78.1007 90.4085L78.8112 90.3043C79.3184 89.0924 79.0516 86.443 79.1124 85.0412Z" fill="#C1D4D6"/>
</g>
<defs>
<clipPath id="clip0_80_84">
<rect width="438" height="326" fill="white"/>
</clipPath>
</defs>
</svg>
