<svg width="34" height="34" viewBox="0 0 34 34" fill="none" xmlns="http://www.w3.org/2000/svg">
<path d="M4.25004 4.25H29.75C30.5325 4.25 31.1667 4.88427 31.1667 5.66667V28.3333C31.1667 29.1158 30.5325 29.75 29.75 29.75H4.25004C3.46764 29.75 2.83337 29.1158 2.83337 28.3333V5.66667C2.83337 4.88427 3.46764 4.25 4.25004 4.25ZM5.66671 7.08333V26.9167H28.3334V7.08333H5.66671ZM23.9417 18.4167C23.2854 21.6498 20.427 24.0833 17 24.0833C13.088 24.0833 9.91671 20.912 9.91671 17C9.91671 13.5731 12.3502 10.7147 15.5834 10.0584V18.4167H23.9417ZM23.9417 15.5833H18.4167V10.0584C21.1921 10.6217 23.3783 12.8079 23.9417 15.5833Z" fill="#9500AD"/>
</svg>
