<svg width="34" height="34" viewBox="0 0 34 34" fill="none" xmlns="http://www.w3.org/2000/svg">
<path d="M11.3333 4.25C5.85647 4.25 1.41663 8.68985 1.41663 14.1667C1.41663 19.6435 5.85647 24.0833 11.3333 24.0833H12.8504C12.7842 23.6207 12.75 23.1476 12.75 22.6667C12.75 22.1857 12.7842 21.7127 12.8504 21.25H11.3333C7.42128 21.25 4.24996 18.0787 4.24996 14.1667C4.24996 10.2547 7.42128 7.08333 11.3333 7.08333H22.6666C26.5786 7.08333 29.75 10.2547 29.75 14.1667C29.75 14.6523 29.7011 15.1265 29.608 15.5845C30.4375 16.3976 31.1247 17.3553 31.629 18.4167C32.2409 17.1285 32.5833 15.6876 32.5833 14.1667C32.5833 8.68985 28.1435 4.25 22.6666 4.25H11.3333ZM22.6666 18.4167C20.3194 18.4167 18.4166 20.3194 18.4166 22.6667C18.4166 25.0139 20.3194 26.9167 22.6666 26.9167C25.0139 26.9167 26.9166 25.0139 26.9166 22.6667C26.9166 20.3194 25.0139 18.4167 22.6666 18.4167ZM15.5833 22.6667C15.5833 18.7547 18.7546 15.5833 22.6666 15.5833C26.5786 15.5833 29.75 18.7547 29.75 22.6667C29.75 24.1104 29.318 25.4533 28.5764 26.573L32.1684 30.1649L30.1649 32.1684L26.5729 28.5764C25.4532 29.3181 24.1103 29.75 22.6666 29.75C18.7546 29.75 15.5833 26.5787 15.5833 22.6667Z" fill="#018AD7"/>
</svg>
