<svg width="34" height="34" viewBox="0 0 34 34" fill="none" xmlns="http://www.w3.org/2000/svg">
<path d="M22.6666 22.6667C25.0139 22.6667 26.9166 24.5694 26.9166 26.9167C26.9166 29.264 25.0139 31.1667 22.6666 31.1667C20.3194 31.1667 18.4166 29.264 18.4166 26.9167C18.4166 24.5694 20.3194 22.6667 22.6666 22.6667ZM8.49998 17C11.6296 17 14.1666 19.5371 14.1666 22.6667C14.1666 25.7963 11.6296 28.3334 8.49998 28.3334C5.37036 28.3334 2.83331 25.7963 2.83331 22.6667C2.83331 19.5371 5.37036 17 8.49998 17ZM22.6666 25.5C21.8842 25.5 21.25 26.1343 21.25 26.9167C21.25 27.6991 21.8842 28.3334 22.6666 28.3334C23.4491 28.3334 24.0833 27.6991 24.0833 26.9167C24.0833 26.1343 23.4491 25.5 22.6666 25.5ZM8.49998 19.8334C6.93517 19.8334 5.66665 21.1019 5.66665 22.6667C5.66665 24.2316 6.93517 25.5 8.49998 25.5C10.0648 25.5 11.3333 24.2316 11.3333 22.6667C11.3333 21.1019 10.0648 19.8334 8.49998 19.8334ZM20.5416 2.83337C24.8449 2.83337 28.3333 6.32182 28.3333 10.625C28.3333 14.9283 24.8449 18.4167 20.5416 18.4167C16.2384 18.4167 12.75 14.9283 12.75 10.625C12.75 6.32182 16.2384 2.83337 20.5416 2.83337ZM20.5416 5.66671C17.8032 5.66671 15.5833 7.88662 15.5833 10.625C15.5833 13.3635 17.8032 15.5834 20.5416 15.5834C23.2801 15.5834 25.5 13.3635 25.5 10.625C25.5 7.88662 23.2801 5.66671 20.5416 5.66671Z" fill="#00AD45"/>
</svg>
