<svg width="22" height="19" viewBox="0 0 22 19" fill="none" xmlns="http://www.w3.org/2000/svg">
<path fill-rule="evenodd" clip-rule="evenodd" d="M11.0001 0.999979H3.50006C2.00013 0.999979 0.994424 1.65736 1.00002 3.49998C1.00562 5.34259 1.00002 13 1.00002 13C1.01183 14.5478 1.54972 15.0171 3.50006 15C6.6361 14.9724 6.99995 14.9997 7.50002 15C8.0001 15.0002 8.5001 15.5002 8.5001 15.5002C8.5001 15.5002 10 17.5 10.5001 18C10.5001 18 11.0001 18.5 11.5001 18C12 17.5 13.0001 15.5002 13.0001 15.5002C13.0001 15.5002 13.5001 15.0002 14.0001 15C14.5 14.9997 18.5 15 18.5 15C20.3758 14.996 20.9922 14.6145 21 13L21.0001 3.49998C21.0396 1.64063 20.614 0.985838 18.5 0.999979H11.0001ZM6.0001 4.50024H16.0001C16.5001 4.50024 17.0001 5.00024 17.0001 5.50024C17.0001 6.00024 16.5001 6.50024 16.0001 6.50024H6.0001C5.5001 6.50024 5.0001 6.00024 5.0001 5.50024C5.0001 5.00024 5.5001 4.50024 6.0001 4.50024ZM6.0001 9.00024H16.0001C16.5001 9.00024 17.0001 9.50024 17.0001 10.0002C17.0001 10.5002 16.5001 11.0002 16.0001 11.0002H6.0001C5.5001 11.0002 5.0001 10.5002 5.0001 10.0002C5.0001 9.50024 5.5001 9.00024 6.0001 9.00024Z" fill="white"/>
<path d="M11.0001 0.999979C11.0001 0.999979 4.99999 0.999979 3.50006 0.999979M11.0001 0.999979H18.5C20.614 0.985838 21.0396 1.64063 21.0001 3.49998L21 13C20.9922 14.6145 20.3758 14.996 18.5 15C18.5 15 14.5 14.9997 14.0001 15C13.5001 15.0002 13.0001 15.5002 13.0001 15.5002C13.0001 15.5002 12 17.5 11.5001 18C11.0001 18.5 10.5001 18 10.5001 18C10 17.5 8.5001 15.5002 8.5001 15.5002C8.5001 15.5002 8.0001 15.0002 7.50002 15C6.99995 14.9997 6.6361 14.9724 3.50006 15C1.54972 15.0171 1.01183 14.5478 1.00002 13C1.00002 13 1.00562 5.34259 1.00002 3.49998C0.994424 1.65736 2.00013 0.999979 3.50006 0.999979M11.0001 0.999979H3.50006M16.0001 4.50024C15.5001 4.50024 6.5001 4.50024 6.0001 4.50024M16.0001 4.50024C16.5001 4.50024 17.0001 5.00024 17.0001 5.50024C17.0001 6.00024 16.5001 6.50024 16.0001 6.50024M16.0001 4.50024H6.0001M6.0001 4.50024C5.5001 4.50024 5.0001 5.00024 5.0001 5.50024C5.0001 6.00024 5.5001 6.50024 6.0001 6.50024M6.0001 6.50024C6.5001 6.50024 15.5001 6.50024 16.0001 6.50024M6.0001 6.50024H16.0001M16.0001 9.00024H6.0001C5.5001 9.00024 5.0001 9.50024 5.0001 10.0002C5.0001 10.5002 5.5001 11.0002 6.0001 11.0002H16.0001C16.5001 11.0002 17.0001 10.5002 17.0001 10.0002C17.0001 9.50024 16.5001 9.00024 16.0001 9.00024Z" stroke="white" stroke-width="0.1"/>
</svg>
