<svg width="44" height="44" viewBox="0 0 44 44" fill="none" xmlns="http://www.w3.org/2000/svg">
<path d="M7.33335 32.9998H17.4167V35.2915C17.4167 38.0759 15.1595 40.3331 12.375 40.3331C9.59059 40.3331 7.33335 38.0759 7.33335 35.2915V32.9998ZM14.6667 11.221C18.3334 11.221 20.1667 16.4998 20.1667 20.1665C20.1667 21.9998 19.25 23.8331 18.3334 26.5831L17.4167 29.3331H7.33335C7.33335 27.4998 6.41669 24.7498 6.41669 20.1665C6.41669 15.5832 10.0794 11.221 14.6667 11.221ZM36.7657 25.8467L36.3677 28.1037C35.8842 30.8458 33.2692 32.6768 30.527 32.1931C27.7849 31.7097 25.954 29.0948 26.4376 26.3527L26.8354 24.0958L36.7657 25.8467ZM33.3256 3.12534C37.8431 3.92192 40.6927 8.85386 39.8968 13.3676C39.101 17.8813 37.7207 20.4303 37.4024 22.2357L27.4722 20.4849L27.047 17.6175C26.6217 14.75 26.0374 12.7854 26.3557 10.9799C26.9924 7.36896 29.7145 2.48862 33.3256 3.12534Z" fill="#009AAD"/>
</svg>
