<svg width="36" height="40" viewBox="0 0 36 40" fill="none" xmlns="http://www.w3.org/2000/svg">
<g clip-path="url(#clip0_80_548)">
<path d="M15.4251 1.20557H20.5628C22.0931 1.20557 23.332 2.43522 23.332 3.95421V5.91925H12.6559V3.95421C12.6559 2.43522 13.8947 1.20557 15.4251 1.20557Z" fill="white" stroke="#999999" stroke-width="2.5" stroke-linejoin="round"/>
<path d="M29.2227 5.90723H6.77733V38.7945H29.2227V5.90723Z" fill="white" stroke="#999999" stroke-width="2.5" stroke-linejoin="round"/>
<path d="M31.2389 5.90723H4.76113V20.1688H31.2389V5.90723Z" fill="white" stroke="#999999" stroke-width="2.5" stroke-linejoin="round"/>
<path d="M6.77733 26.1604H1.21458V35.9977H6.77733V26.1604Z" fill="white" stroke="#999999" stroke-width="2.5" stroke-linejoin="round"/>
<path d="M34.7854 26.1604H29.2227V35.9977H34.7854V26.1604Z" fill="white" stroke="#999999" stroke-width="2.5" stroke-linejoin="round"/>
<path d="M24.5101 25.0994H11.502V34.3338H24.5101V25.0994Z" fill="white" stroke="#999999" stroke-width="2.5" stroke-linejoin="round"/>
<path d="M11.502 28.9331H24.498" stroke="#999999" stroke-width="2.5" stroke-linejoin="round"/>
<path d="M24.498 17.5769V22.7728" stroke="#999999" stroke-width="2.5" stroke-linejoin="round"/>
<path d="M11.502 17.5769V22.7728" stroke="#999999" stroke-width="2.5" stroke-linejoin="round"/>
</g>
<defs>
<clipPath id="clip0_80_548">
<rect width="36" height="40" fill="white"/>
</clipPath>
</defs>
</svg>
