<svg width="53" height="51" viewBox="0 0 53 51" fill="none" xmlns="http://www.w3.org/2000/svg">
<path d="M44.8778 9.05087C44.1581 9.50321 44.302 10.7302 44.3175 10.8706C44.3432 11.0578 44.5025 11.1982 44.6876 11.1982C44.703 11.1982 44.7236 11.1982 44.739 11.1982C44.9446 11.1722 45.0834 10.9798 45.0577 10.7718C45.0166 10.4703 45.0372 9.84116 45.2736 9.69558C45.3405 9.65399 45.6283 9.55 46.4149 10.0907C46.5845 10.2051 46.8158 10.1635 46.9341 9.98674C47.0472 9.81517 47.0061 9.5812 46.8313 9.46161C45.9933 8.88969 45.3559 8.75451 44.8778 9.05087Z" fill="#999999"/>
<path d="M18.8813 24.7576C19.0612 24.924 19.2925 25.0124 19.529 25.0124C19.6524 25.0124 19.7758 24.9864 19.8889 24.9396C20.2333 24.7992 20.4646 24.4769 20.4955 24.1025C20.588 22.8235 20.5983 21.4977 20.516 20.1667C20.4955 19.7923 20.259 19.4596 19.9146 19.3192C19.5701 19.1788 19.1743 19.2464 18.8967 19.4959L16.7993 21.4041C16.5937 21.5913 16.4806 21.8564 16.4806 22.132C16.4806 22.4127 16.5937 22.6727 16.7993 22.8599L18.8761 24.7524L18.8813 24.7576Z" fill="#999999"/>
<path d="M50.9543 7.74549L50.9132 7.6883C50.2192 6.77322 49.5149 6.36768 48.826 6.48726C47.9727 6.63284 47.4432 7.52712 47.1964 8.06785C46.9805 7.96906 46.7749 7.88587 46.5744 7.81828C46.3739 7.74549 46.1734 7.6883 45.9884 7.6467C45.6131 7.55832 45.2635 7.52192 44.9448 7.54272C43.5363 6.59125 42.2768 6.67444 41.4645 6.924C41.2743 6.9812 41.0944 7.05399 40.9351 7.12678C39.5625 6.2325 38.2619 6.28969 37.3931 6.50806C37.2286 6.54965 37.0744 6.59645 36.9356 6.64844C36.3907 6.34168 35.8149 6.14411 35.2186 6.06612C34.0671 2.45262 32.6945 0.502885 31.1369 0.263718C30.047 0.0973412 29.1988 0.809643 28.7773 1.26718C27.4612 -0.0378402 26.3508 -0.0118438 26.1349 0.00375402C24.2534 0.0141526 22.6804 1.33997 21.5854 3.84603C20.9685 5.26023 20.6652 6.65884 20.5573 7.25676C20.2385 7.37114 19.9352 7.51152 19.6474 7.6883C19.6422 7.6883 19.6319 7.6987 19.6268 7.6987C18.8248 8.18223 18.1463 8.96732 17.7402 9.92919C17.2209 11.151 16.6863 13.7351 18.9379 17.3018C19.5086 18.2065 20.3002 18.8928 21.3027 19.3503C21.3181 19.3555 21.3335 19.3659 21.3489 19.3711C21.4517 21.2636 21.4209 23.1146 21.2718 24.8875C21.2718 24.8979 21.2718 24.9031 21.2718 24.9135C18.6552 27.0764 16.7994 29.5253 16.2802 31.4178L15.7867 31.9638L12.5583 35.5617C12.4761 35.5097 12.3887 35.4681 12.2961 35.4317C12.2447 35.3901 12.183 35.3589 12.1111 35.3485L8.37377 34.7974C8.37377 34.7974 8.35321 34.7974 8.33779 34.7974C8.32237 34.7974 8.30695 34.7922 8.29152 34.787C7.49471 34.6674 6.63621 35.0729 5.94222 35.8996L0.672987 42.118C0.590736 42.2168 0.565032 42.3467 0.595876 42.4715L0.852912 43.4074C0.415952 43.5998 0.086946 44.0105 0.014976 44.52C-0.0981197 45.3103 0.441655 46.0382 1.2179 46.1526C1.35156 46.1734 1.48522 46.1734 1.61374 46.1526L2.00443 47.5616C1.59317 47.7592 1.28473 48.1595 1.21276 48.6535C1.09967 49.4386 1.63944 50.1717 2.41569 50.286C3.02229 50.3744 3.59805 50.0625 3.87565 49.5425L6.30207 49.9013C6.30207 49.9013 6.32263 49.9013 6.33291 49.9013C6.33291 49.9013 6.33805 49.9013 6.34319 49.9013H6.35347C6.35347 49.9013 6.36376 49.9013 6.3689 49.9013C6.37918 49.9013 6.38432 49.9013 6.38946 49.9013C6.38946 49.9013 6.38946 49.9013 6.3946 49.9013C6.39974 49.9013 6.41002 49.9013 6.41516 49.9013C6.4203 49.9013 6.42545 49.9013 6.43059 49.9013H6.44087C6.44087 49.9013 6.44087 49.9013 6.44601 49.9013C6.45629 49.9013 6.46657 49.9013 6.47685 49.8909C6.47685 49.8909 6.48199 49.8909 6.48713 49.8857C6.49742 49.8857 6.50256 49.8857 6.5077 49.8753C6.5077 49.8753 6.5077 49.8753 6.51798 49.8701C6.51798 49.8701 6.51798 49.8701 6.52312 49.8701C6.52312 49.8701 6.5334 49.8649 6.53854 49.8597C6.54368 49.8597 6.54882 49.8545 6.55396 49.8493C6.55396 49.8493 6.57453 49.8337 6.58995 49.8233C6.58995 49.8233 6.59509 49.8233 6.60023 49.8129C6.60023 49.8129 6.60537 49.8077 6.61051 49.8025C6.61051 49.8025 6.62079 49.7921 6.62593 49.7869L10.0959 45.8563C10.3272 45.8823 10.5637 45.903 10.7951 45.929C11.1086 45.9602 11.4222 45.9914 11.7358 46.0174C11.7461 46.0174 11.7564 46.0174 11.7666 46.0174C12.2396 46.059 12.7074 46.1006 13.1752 46.137C15.4577 46.3034 17.6116 46.397 19.3852 46.397C19.7502 46.397 20.11 46.397 20.4647 46.3814C20.4853 46.3814 20.511 46.3814 20.5316 46.3814C20.5418 46.3814 20.5521 46.3814 20.5573 46.3814C20.6498 46.3814 20.7475 46.3762 20.84 46.371V47.2341C20.84 48.4559 21.1484 49.3346 21.7499 49.8493C22.3514 50.3588 23.0454 50.312 23.2202 50.2912L29.718 50.3016C30.3349 50.3016 31.0546 50.2289 31.1883 49.6777C31.2962 49.215 30.9055 48.7263 29.8825 48.04C29.461 47.7592 29.0343 47.5148 28.7927 47.3848L28.8081 45.2219V45.1128C29.2142 44.988 29.6101 44.8528 29.9905 44.7124C30.4017 44.5616 30.7924 44.4005 31.178 44.2289C31.2397 44.2029 31.3065 44.1717 31.3682 44.1405V44.9204C31.3682 46.1422 31.6766 47.0209 32.2781 47.5356C32.8796 48.0452 33.5736 48.0036 33.7483 47.9776L39.1872 47.988C39.8041 47.988 40.5238 47.9152 40.6575 47.364C40.7705 46.9013 40.3799 46.4126 39.3517 45.7263C38.9302 45.4455 38.5035 45.2011 38.2619 45.066L38.2773 37.6102V36.9291C38.5241 36.196 38.6988 35.4213 38.8017 34.6154C38.8479 34.2514 38.8839 33.8823 38.9096 33.5183C39.1975 29.4161 38.2927 25.2411 37.4342 22.3607C36.6683 19.787 35.82 17.7905 35.4448 16.9638C37.7118 16.3815 41.9221 16.2931 43.4951 16.2619C45.1453 16.2307 46.3071 15.8564 46.9394 15.1597C47.217 14.8529 47.3352 14.5514 47.3815 14.333C50.0701 14.1198 51.6997 13.4907 52.3474 12.43C53.2985 10.8599 51.8179 8.91533 50.9389 7.75069L50.9543 7.74549ZM9.63325 38.728C9.61269 39.0244 9.5767 39.3208 9.51501 39.6171C9.44818 39.9395 9.34537 40.2826 9.21171 40.6414C8.9958 41.2029 8.69764 41.7176 8.33265 42.1284L7.55126 43.0174L6.82128 43.8441L6.29693 44.442L5.69032 45.1284L3.43869 47.6812L2.96575 48.2167L2.74469 47.4212L2.6573 47.1145L1.59832 43.293L1.36698 42.4559L6.50256 36.3936C6.96008 35.8476 7.48957 35.5461 7.9728 35.5305C8.43032 35.4889 8.76961 35.7436 9.01122 36.0608C9.01122 36.0608 9.72578 37.0227 9.63839 38.702C9.63839 38.7072 9.63839 38.7176 9.63839 38.7228L9.63325 38.728ZM31.0238 1.01761C31.8668 1.1476 33.1263 2.13546 34.4063 6.01933C34.2213 6.02453 34.0311 6.04012 33.846 6.07132C33.4913 4.85469 32.2215 2.39543 31.0083 2.39543C30.4994 2.39543 30.1601 2.5462 29.9391 2.74378C29.7232 2.40062 29.5072 2.09907 29.2913 1.8339C29.5946 1.49595 30.2475 0.892832 31.0289 1.01242L31.0238 1.01761ZM30.9209 4.60512C30.9209 4.60512 30.9055 4.60512 30.9004 4.60512C30.7153 4.18398 30.5302 3.79403 30.34 3.44568C30.3812 3.3417 30.52 3.15452 30.9981 3.15452C31.2294 3.15452 31.7023 3.50287 32.2987 4.49594C32.6739 5.11985 32.9618 5.78536 33.1006 6.2273C33.0646 6.2377 33.0338 6.2481 32.9978 6.25849C32.8898 6.28969 32.787 6.32609 32.6893 6.36768C32.5711 5.85815 32.3501 5.42141 32.0673 5.10425C31.9902 5.20824 31.8925 5.27063 31.7794 5.27063C31.5481 5.27063 31.363 5.00547 31.363 4.67791C31.363 4.66231 31.363 4.64672 31.363 4.63112C31.214 4.58952 31.0649 4.57913 30.9158 4.59992L30.9209 4.60512ZM16.0334 32.806L16.1311 32.6969C16.1671 33.0192 16.2596 33.3052 16.4241 33.5547C16.6143 33.8459 16.8868 34.0643 17.2364 34.2202L13.9257 38.1509C13.8692 37.6778 13.7561 37.2306 13.5813 36.8251C13.4528 36.5339 13.2986 36.274 13.1187 36.0608L16.0334 32.806ZM18.0435 34.4438C18.2491 34.475 18.465 34.4906 18.7015 34.4906C18.7683 34.4906 18.8403 34.4906 18.9122 34.4906C18.8711 34.5842 18.83 34.6778 18.7837 34.7714C17.9663 36.5235 16.969 38.0573 15.8072 39.3208C15.3394 39.8251 14.8511 40.2878 14.337 40.6986C14.08 40.9065 13.8126 41.1041 13.5402 41.2861C13.6379 41.0209 13.7201 40.7402 13.7818 40.4646C13.8692 40.0694 13.9309 39.6691 13.9514 39.274L18.0383 34.4542L18.0435 34.4438ZM13.4065 45.3779C13.2832 45.3675 13.1649 45.3623 13.0415 45.3519C13.0364 45.3519 13.0261 45.3519 13.021 45.3519C12.7588 45.3311 12.4915 45.3103 12.2242 45.2843C11.9569 45.2583 11.6895 45.2375 11.4222 45.2115C11.1857 45.1907 10.9544 45.1647 10.7179 45.144L10.867 44.9776L12.4555 43.1786C12.6251 42.9862 12.7794 42.7783 12.9182 42.5599C13.2626 42.3727 13.5967 42.1648 13.9257 41.9464C14.7945 41.3641 15.6016 40.657 16.3573 39.8407C17.5962 38.4941 18.6706 36.8303 19.5394 34.9066C19.6165 34.7454 19.6885 34.579 19.7553 34.4126C20.11 34.3606 20.4802 34.2826 20.876 34.1787C22.9785 33.6275 25.4564 32.4317 27.8571 30.8043C27.965 30.7315 28.073 30.6535 28.1861 30.5808C28.3557 30.4612 28.3969 30.2272 28.2838 30.0556C28.1655 29.884 27.9342 29.8425 27.7697 29.9568C27.6617 30.0296 27.5589 30.1024 27.451 30.1752C25.1171 31.7506 22.7215 32.9152 20.6961 33.4456C18.8248 33.9395 17.4883 33.8251 17.041 33.144C16.5784 32.4473 16.969 31.0435 18.0794 29.3953C19.3132 27.5756 21.3027 25.657 23.5492 24.1388C24.202 23.7021 24.8652 23.2862 25.5232 22.9118C25.7031 22.8078 25.7699 22.5791 25.6671 22.4023C25.5643 22.2203 25.3381 22.1579 25.1633 22.2567C24.4848 22.6414 23.8011 23.0678 23.1379 23.5149C22.7678 23.7645 22.4028 24.0245 22.0532 24.2948C22.0532 24.2792 22.0532 24.2688 22.0532 24.2532C22.156 22.7506 22.1766 21.2116 22.1046 19.6675C22.3154 19.735 22.5364 19.787 22.7626 19.8338C23.4258 19.9742 24.1249 20.0314 24.8292 20.0314C26.1606 20.0314 27.5332 19.8182 28.8081 19.5063C29.0292 20.3382 29.5587 22.5739 29.7129 25.3867C29.8979 28.657 29.5998 33.3988 27.1425 37.4334C24.675 41.4941 20.4956 44.1301 14.7174 45.2791C14.229 45.3623 13.5453 45.3831 13.3963 45.3831L13.4065 45.3779ZM30.4223 49.4594C30.3246 49.4906 30.1241 49.5322 29.7283 49.5322L23.2047 49.5217C23.2047 49.5217 23.1636 49.5218 23.143 49.527C23.1225 49.527 22.6444 49.5997 22.2383 49.2514C21.827 48.8926 21.606 48.1959 21.606 47.2289V46.3294C21.8733 46.3138 22.1406 46.2982 22.4028 46.2774C22.6547 46.2566 22.9066 46.2358 23.1585 46.2098C24.8035 46.0486 26.356 45.7783 27.7954 45.3987C27.8828 45.3779 27.9702 45.3519 28.0576 45.3311V45.4299L28.0421 47.6084C28.0421 47.754 28.1193 47.884 28.2478 47.9516C29.2605 48.4819 30.2115 49.1474 30.4223 49.4646V49.4594ZM39.8863 47.1457C39.7887 47.1769 39.5882 47.2185 39.1975 47.2185L33.7329 47.2029C33.7329 47.2029 33.6918 47.2029 33.6712 47.2081C33.6507 47.2081 33.1726 47.2809 32.7665 46.9273C32.3552 46.5686 32.1342 45.8719 32.1342 44.9048V43.7557C32.2524 43.6934 32.3758 43.6258 32.494 43.5634C34.175 42.6379 35.5476 41.4889 36.5757 40.1526C36.9356 39.6899 37.2492 39.196 37.5268 38.6864L37.5113 45.2843C37.5113 45.4299 37.5884 45.5599 37.717 45.6275C38.7297 46.1578 39.6807 46.8233 39.8915 47.1405L39.8863 47.1457ZM35.9588 20.2654C35.2134 21.5548 32.165 22.657 32.165 22.657C34.6274 22.4387 35.8714 21.8823 36.4009 21.5704C36.5038 21.8927 36.6117 22.2307 36.7145 22.5791C36.8533 23.0418 36.9921 23.5409 37.1258 24.0609C37.2492 24.5496 37.3725 25.0643 37.4908 25.5998C37.6347 26.2809 37.7684 26.9932 37.8815 27.7211C37.8866 27.7679 37.8969 27.8095 37.902 27.8563C36.915 29.0002 34.0516 29.7853 34.0516 29.7853C36.1542 29.7645 37.3982 29.4369 38.0614 29.1665C38.1436 29.9516 38.1951 30.7523 38.2053 31.5582C38.2156 32.0781 38.2053 32.6033 38.1745 33.1284C38.1488 33.5963 38.1077 34.0591 38.0511 34.5218C37.9946 34.9689 37.9175 35.4057 37.8146 35.8268C36.7094 36.8199 33.4502 36.8719 33.4502 36.8719C35.3677 37.345 36.6169 37.3606 37.352 37.2878C36.9664 38.2497 36.4421 39.1336 35.7841 39.9447C35.3779 40.4438 34.9153 40.9117 34.4063 41.3485C33.6301 42.014 32.7356 42.6067 31.7229 43.1266C31.2654 43.3606 30.7873 43.579 30.2835 43.7869C29.7334 44.0105 29.1577 44.2133 28.5614 44.3953C28.5408 44.4005 28.5202 44.4057 28.4997 44.416C28.2735 44.4836 28.0421 44.5512 27.8057 44.6136C26.3714 45.0036 24.8189 45.2791 23.1636 45.4455C22.9169 45.4715 22.6598 45.4923 22.4079 45.5131C21.4363 45.5911 20.4287 45.6275 19.3955 45.6275C18.6089 45.6275 17.7402 45.6067 16.8148 45.5703C21.8167 44.1977 25.5078 41.6032 27.8005 37.8234C28.9315 35.962 29.7232 33.8043 30.1498 31.4178C30.4891 29.5149 30.5971 27.4612 30.4788 25.3139C30.3143 22.4231 29.7848 20.177 29.5535 19.3087C31.8977 18.6588 33.7997 17.7541 34.2984 17.411C34.4166 17.333 34.5606 17.255 34.7302 17.1874C34.9615 17.6917 35.4345 18.7836 35.964 20.2602L35.9588 20.2654ZM51.71 12.0245C51.2679 12.7524 49.7976 13.6207 45.279 13.6467C45.2173 13.6467 45.1504 13.6467 45.0887 13.6467C40.4107 13.6467 33.3679 12.7628 24.1558 11.0158C24.3717 10.6623 24.7367 10.4751 24.7418 10.4699C24.9269 10.3763 25.004 10.1476 24.9166 9.96039C24.8292 9.76801 24.603 9.69002 24.4128 9.78361C24.3768 9.79921 23.4926 10.2411 23.287 11.1666C23.143 11.8061 23.3538 12.4924 23.9142 13.2047C23.9913 13.2983 24.0992 13.3503 24.2123 13.3503C24.2946 13.3503 24.3768 13.3243 24.4488 13.2671C24.6133 13.1371 24.639 12.8928 24.5105 12.7316C24.2432 12.3885 24.0787 12.0661 24.0272 11.7697C33.2857 13.5271 40.3696 14.4162 45.0939 14.4162C45.1607 14.4162 45.2224 14.4162 45.2892 14.4162C45.7416 14.4162 46.1683 14.4006 46.5796 14.385C46.5281 14.4838 46.451 14.5981 46.3328 14.7125C45.9781 15.0557 45.2018 15.4664 43.4951 15.5028C37.9843 15.612 35.0181 16.0124 33.8769 16.7922C33.0029 17.3902 27.1579 19.969 22.9271 19.0851C22.6238 19.0227 22.3411 18.9448 22.0686 18.846C22.0532 18.846 22.0378 18.8356 22.0224 18.8304C21.7808 18.742 21.5546 18.6432 21.3387 18.5288C21.3284 18.5288 21.3181 18.5184 21.313 18.5132C20.583 18.1233 20.0021 17.5825 19.5702 16.9014C17.5088 13.6311 17.9715 11.3278 18.4341 10.2411C18.7837 9.41446 19.3646 8.74895 20.0432 8.34861C20.1203 8.30181 20.1974 8.26022 20.2797 8.21863C20.2899 8.21343 20.3002 8.20823 20.3105 8.20303C20.3259 8.19783 20.3362 8.19263 20.3516 8.18223C20.3825 8.16663 20.4133 8.15104 20.4493 8.13544C20.4493 8.13544 20.4545 8.13544 20.4596 8.13024C20.5007 8.10944 20.547 8.09384 20.5881 8.07305C20.7783 7.99506 20.9685 7.92747 21.169 7.87547C22.5776 7.49592 24.2534 7.71949 25.734 8.10944C26.6799 8.35901 27.5486 8.67616 28.2221 8.95692C29.06 9.30008 29.5946 9.58084 29.6152 9.59124C29.6717 9.62243 29.7334 9.63283 29.79 9.63283C29.9236 9.63283 30.0573 9.56004 30.1241 9.43006C30.2167 9.25328 30.155 9.04011 29.9956 8.93093C29.9956 8.65017 29.975 8.14583 29.9134 7.53232C29.8825 7.20996 29.8363 6.85121 29.7797 6.48206C29.5484 5.08346 29.0754 3.49767 28.109 2.70218C27.5281 2.21865 26.8341 2.06267 26.0475 2.23425C25.3844 2.37983 24.8857 2.73858 24.5567 3.3053C23.8936 4.44394 24.1249 6.13891 24.3151 7.02799C23.8062 6.9552 23.2921 6.9136 22.7832 6.9136C22.3051 6.9136 21.8373 6.9552 21.3798 7.04359C21.7448 5.33822 23.0094 0.778448 26.1606 0.778448C26.1812 0.778448 26.1966 0.778448 26.212 0.778448C26.2172 0.778448 26.8803 0.710857 27.7954 1.41796C28.4842 1.94829 29.389 2.98814 30.2526 5.02106C30.556 5.73857 30.8593 6.58085 31.142 7.56352C31.178 7.6831 31.2705 7.78189 31.3887 7.81828C31.4813 7.84948 31.5738 7.84428 31.6612 7.80268C31.6869 7.79228 31.7178 7.77669 31.7435 7.75589C31.7486 7.75589 32.1496 7.43873 32.7922 7.16837C32.9361 7.10598 33.0903 7.04879 33.26 6.99679C33.3833 6.9552 33.5119 6.924 33.6352 6.89801H33.6455H33.6558C33.6558 6.89801 33.6558 6.89801 33.6609 6.89801C34.0722 6.80442 34.4732 6.77322 34.869 6.80442C34.869 6.80442 34.9101 6.80442 34.9307 6.80442C35.3111 6.84081 35.6812 6.9292 36.0411 7.07478C35.8715 7.17877 35.7738 7.25156 35.7635 7.26196C35.599 7.39194 35.5681 7.63111 35.6915 7.79748C35.82 7.96386 36.0565 7.99506 36.221 7.87027C36.3033 7.80788 38.0922 6.47167 40.1845 7.57911C40.0611 7.6727 39.9892 7.74029 39.9789 7.74549C39.8247 7.89107 39.8195 8.13024 39.9583 8.28622C40.0354 8.3694 40.1331 8.4058 40.2359 8.4058C40.3284 8.4058 40.421 8.3746 40.493 8.30181C40.493 8.30181 40.9556 7.88067 41.6753 7.6623C42.4259 7.43353 43.1764 7.49592 43.9218 7.84428C43.8755 7.87027 43.8293 7.89627 43.783 7.92747C42.4361 8.85294 42.5852 11.0574 42.5955 11.151C42.6109 11.359 42.7909 11.515 43.0016 11.4994C43.2124 11.4838 43.3666 11.3018 43.346 11.0886C43.346 11.073 43.2278 9.22729 44.2045 8.56178C44.6261 8.27062 45.2173 8.22902 45.9627 8.4318C46.0089 8.44739 46.2711 8.53578 46.4305 8.62417C47.6745 9.28968 48.7695 9.33127 49.006 9.33127H49.0522C49.263 9.32607 49.4224 9.1493 49.4172 8.93613C49.4069 8.72296 49.2373 8.56178 49.0265 8.56698C49.0163 8.56698 48.5485 8.57738 47.8802 8.3902C48.0858 7.95346 48.4662 7.32955 48.9443 7.24636C49.4327 7.16317 49.957 7.6987 50.3066 8.15623L50.3477 8.21343C51.1137 9.22209 52.3937 10.9067 51.7151 12.0245H51.71ZM28.5099 7.05918C28.4431 6.63284 28.3043 6.2481 28.1193 5.93094C28.0421 6.07132 27.9239 6.15971 27.7902 6.15971C27.5589 6.15971 27.3738 5.89454 27.3738 5.56699C27.3738 5.43181 27.4047 5.31222 27.4561 5.21344C27.2145 5.06266 26.9523 4.99507 26.6953 5.03666C25.9447 5.15625 25.4615 6.12851 25.554 7.26196C25.4101 7.23076 25.261 7.19437 25.1119 7.16317C24.9577 6.53406 24.5876 4.7299 25.1993 3.68485C25.4204 3.3053 25.7494 3.07133 26.2018 2.97255C26.757 2.85296 27.2248 2.95175 27.6257 3.2845C28.8955 4.33476 29.168 7.26716 29.2194 8.54618C29.0086 8.45259 28.767 8.34341 28.4894 8.22902C28.5665 7.87547 28.5768 7.46993 28.5099 7.05918Z" fill="#999999"/>
</svg>
