<svg width="44" height="44" viewBox="0 0 44 44" fill="none" xmlns="http://www.w3.org/2000/svg">
<path d="M33 42.1667H29.3333V40.3333H14.6667V42.1667H11V40.3333H9.16667C7.14162 40.3333 5.5 38.6918 5.5 36.6667V12.8333C5.5 10.8083 7.14162 9.16666 9.16667 9.16666H14.6667V5.49999C14.6667 4.48748 15.4875 3.66666 16.5 3.66666H27.5C28.5126 3.66666 29.3333 4.48748 29.3333 5.49999V9.16666H34.8333C36.8584 9.16666 38.5 10.8083 38.5 12.8333V36.6667C38.5 38.6918 36.8584 40.3333 34.8333 40.3333H33V42.1667ZM34.8333 12.8333H9.16667V36.6667H34.8333V12.8333ZM18.3333 16.5V33H14.6667V16.5H18.3333ZM29.3333 16.5V33H25.6667V16.5H29.3333ZM25.6667 7.33332H18.3333V9.16666H25.6667V7.33332Z" fill="#999999"/>
</svg>
