<svg width="44" height="44" viewBox="0 0 44 44" fill="none" xmlns="http://www.w3.org/2000/svg">
<path d="M14.6667 5.5C7.57902 5.5 1.83334 11.2457 1.83334 18.3333C1.83334 25.421 7.57902 31.1667 14.6667 31.1667H16.63C16.5443 30.5679 16.5 29.9558 16.5 29.3333C16.5 28.7109 16.5443 28.0988 16.63 27.5H14.6667C9.60407 27.5 5.5 23.3959 5.5 18.3333C5.5 13.2707 9.60407 9.16667 14.6667 9.16667H29.3333C34.3959 9.16667 38.5 13.2707 38.5 18.3333C38.5 18.9618 38.4367 19.5754 38.3163 20.1681C39.3897 21.2205 40.2791 22.4598 40.9317 23.8333C41.7236 22.1663 42.1667 20.3016 42.1667 18.3333C42.1667 11.2457 36.421 5.5 29.3333 5.5H14.6667ZM29.3333 23.8333C26.2957 23.8333 23.8333 26.2957 23.8333 29.3333C23.8333 32.371 26.2957 34.8333 29.3333 34.8333C32.371 34.8333 34.8333 32.371 34.8333 29.3333C34.8333 26.2957 32.371 23.8333 29.3333 23.8333ZM20.1667 29.3333C20.1667 24.2708 24.2708 20.1667 29.3333 20.1667C34.3959 20.1667 38.5 24.2708 38.5 29.3333C38.5 31.2017 37.941 32.9395 36.9813 34.3886L41.6297 39.037L39.037 41.6297L34.3886 36.9813C32.9395 37.941 31.2017 38.5 29.3333 38.5C24.2708 38.5 20.1667 34.3959 20.1667 29.3333Z" fill="#999999"/>
</svg>
