<svg width="44" height="44" viewBox="0 0 44 44" fill="none" xmlns="http://www.w3.org/2000/svg">
<path d="M7.33333 32.9996H17.4167V35.2912C17.4167 38.0757 15.1594 40.3329 12.375 40.3329C9.59057 40.3329 7.33333 38.0757 7.33333 35.2912V32.9996ZM14.6667 11.2207C18.3333 11.2207 20.1667 16.4996 20.1667 20.1662C20.1667 21.9996 19.25 23.8329 18.3333 26.5829L17.4167 29.3329H7.33333C7.33333 27.4996 6.41666 24.7496 6.41666 20.1662C6.41666 15.5829 10.0794 11.2207 14.6667 11.2207ZM36.7657 25.8464L36.3676 28.1035C35.8842 30.8456 33.2691 32.6765 30.527 32.1929C27.7849 31.7094 25.9539 29.0946 26.4376 26.3524L26.8354 24.0956L36.7657 25.8464ZM33.3256 3.12509C37.8431 3.92168 40.6927 8.85362 39.8968 13.3673C39.101 17.881 37.7206 20.43 37.4024 22.2355L27.4721 20.4847L27.047 17.6172C26.6216 14.7498 26.0374 12.7851 26.3556 10.9797C26.9923 7.36871 29.7145 2.48838 33.3256 3.12509Z" fill="#999999"/>
</svg>
