<svg width="27" height="27" viewBox="0 0 27 27" fill="none" xmlns="http://www.w3.org/2000/svg">
<rect opacity="0.4" width="27" height="27" rx="13.5" transform="matrix(-1 0 0 1 27 0)" fill="black"/>
<path fill-rule="evenodd" clip-rule="evenodd" d="M13.8775 9.82669C13.7127 9.99144 13.7127 10.2586 13.8775 10.4233L16.5323 13.0781H8.55078C8.31779 13.0781 8.12891 13.267 8.12891 13.5C8.12891 13.733 8.31779 13.9219 8.55078 13.9219H16.5323L13.8775 16.5767C13.7127 16.7415 13.7127 17.0085 13.8775 17.1733C14.0422 17.338 14.3093 17.338 14.4741 17.1733L17.8491 13.7983C18.0138 13.6335 18.0138 13.3665 17.8491 13.2017L14.4741 9.82669C14.3093 9.66194 14.0422 9.66194 13.8775 9.82669Z" fill="white"/>
</svg>
