<svg width="115" height="40" viewBox="0 0 115 40" fill="none" xmlns="http://www.w3.org/2000/svg">
<g clip-path="url(#clip0_1_394)">
<path d="M36.6541 7.19529C36.0664 7.55505 36.184 8.53096 36.1965 8.64261C36.2175 8.79148 36.3477 8.90313 36.4988 8.90313C36.5114 8.90313 36.5282 8.90313 36.5408 8.90313C36.7087 8.88246 36.8221 8.72945 36.8011 8.56404C36.7675 8.3242 36.7843 7.82384 36.9774 7.70805C37.032 7.67497 37.2671 7.59227 37.9094 8.02233C38.0479 8.1133 38.2368 8.08022 38.3334 7.93963C38.4258 7.80316 38.3922 7.61708 38.2494 7.52197C37.5651 7.06709 37.0446 6.95958 36.6541 7.19529Z" fill="#009AAD"/>
<path d="M15.4244 19.6878C15.5713 19.8201 15.7603 19.8904 15.9534 19.8904C16.0541 19.8904 16.1549 19.8697 16.2472 19.8325C16.5285 19.7209 16.7174 19.4645 16.7426 19.1668C16.8182 18.1495 16.8266 17.095 16.7594 16.0364C16.7426 15.7387 16.5495 15.474 16.2682 15.3623C15.987 15.2507 15.6637 15.3045 15.437 15.5029L13.7242 17.0206C13.5562 17.1694 13.4639 17.3803 13.4639 17.5995C13.4639 17.8228 13.5562 18.0296 13.7242 18.1784L15.4202 19.6837L15.4244 19.6878Z" fill="#009AAD"/>
<path d="M41.6166 6.15723L41.583 6.11174C41.0163 5.38394 40.4411 5.06139 39.8786 5.1565C39.1817 5.27229 38.7493 5.98355 38.5478 6.41361C38.3714 6.33504 38.2035 6.26888 38.0398 6.21512C37.8761 6.15723 37.7123 6.11174 37.5612 6.07866C37.2547 6.00836 36.9693 5.97941 36.709 5.99595C35.5587 5.23921 34.5301 5.30537 33.8668 5.50386C33.7115 5.54935 33.5646 5.60724 33.4344 5.66513C32.3135 4.95388 31.2514 4.99936 30.5419 5.17304C30.4075 5.20612 30.2816 5.24334 30.1682 5.28469C29.7232 5.04072 29.253 4.88358 28.7661 4.82155C27.8257 1.94757 26.7048 0.396862 25.4327 0.206642C24.5427 0.0743146 23.85 0.64084 23.5058 1.00474C22.4311 -0.0332012 21.5243 -0.0125251 21.3479 -0.000119425C19.8114 0.00815102 18.5268 1.06263 17.6326 3.05581C17.1288 4.18059 16.8811 5.29296 16.7929 5.76852C16.5326 5.85949 16.285 5.97114 16.0499 6.11174C16.0457 6.11174 16.0373 6.12001 16.0331 6.12001C15.3782 6.50458 14.824 7.129 14.4923 7.89402C14.0683 8.8658 13.6317 10.921 15.4705 13.7578C15.9365 14.4773 16.583 15.0231 17.4017 15.387C17.4143 15.3912 17.4269 15.3994 17.4394 15.4036C17.5234 16.9088 17.4982 18.3809 17.3765 19.7911C17.3765 19.7993 17.3765 19.8035 17.3765 19.8117C15.2396 21.532 13.7241 23.4797 13.3001 24.9849L12.897 25.4191L10.2606 28.2807C10.1934 28.2393 10.1221 28.2062 10.0465 28.1773C10.0045 28.1442 9.95414 28.1194 9.89537 28.1111L6.84331 27.6728C6.84331 27.6728 6.82652 27.6728 6.81392 27.6728C6.80133 27.6728 6.78873 27.6686 6.77614 27.6645C6.12543 27.5694 5.42433 27.892 4.85758 28.5495L0.554476 33.4952C0.487306 33.5737 0.466315 33.6771 0.491504 33.7764L0.701412 34.5207C0.344569 34.6737 0.0758871 35.0004 0.0171129 35.4057C-0.0752465 36.0342 0.36556 36.6131 0.999481 36.7041C1.10863 36.7206 1.21778 36.7206 1.32274 36.7041L1.6418 37.8248C1.30595 37.9819 1.05406 38.3003 0.995283 38.6931C0.902923 39.3176 1.34373 39.9006 1.97765 39.9916C2.47303 40.0619 2.94323 39.8138 3.16993 39.4003L5.15145 39.6856C5.15145 39.6856 5.16825 39.6856 5.17664 39.6856C5.17664 39.6856 5.18084 39.6856 5.18504 39.6856H5.19344C5.19344 39.6856 5.20183 39.6856 5.20603 39.6856C5.21443 39.6856 5.21862 39.6856 5.22282 39.6856C5.22282 39.6856 5.22282 39.6856 5.22702 39.6856C5.23122 39.6856 5.23961 39.6856 5.24381 39.6856C5.24801 39.6856 5.25221 39.6856 5.25641 39.6856H5.2648C5.2648 39.6856 5.2648 39.6856 5.269 39.6856C5.2774 39.6856 5.28579 39.6856 5.29419 39.6773C5.29419 39.6773 5.29839 39.6773 5.30259 39.6732C5.31098 39.6732 5.31518 39.6732 5.31938 39.6649C5.31938 39.6649 5.31938 39.6649 5.32778 39.6608C5.32778 39.6608 5.32778 39.6608 5.33197 39.6608C5.33197 39.6608 5.34037 39.6567 5.34457 39.6525C5.34877 39.6525 5.35297 39.6484 5.35716 39.6443C5.35716 39.6443 5.37396 39.6318 5.38655 39.6236C5.38655 39.6236 5.39075 39.6236 5.39495 39.6153C5.39495 39.6153 5.39915 39.6112 5.40334 39.607C5.40334 39.607 5.41174 39.5988 5.41594 39.5946L8.24969 36.4684C8.43861 36.4891 8.63172 36.5056 8.82064 36.5263C9.07673 36.5511 9.33281 36.5759 9.5889 36.5966C9.5973 36.5966 9.60569 36.5966 9.61409 36.5966C10.0003 36.6297 10.3824 36.6628 10.7644 36.6917C12.6284 36.824 14.3874 36.8985 15.8358 36.8985C16.1338 36.8985 16.4277 36.8985 16.7174 36.8861C16.7342 36.8861 16.7551 36.8861 16.7719 36.8861C16.7803 36.8861 16.7887 36.8861 16.7929 36.8861C16.8685 36.8861 16.9483 36.8819 17.0238 36.8778V37.5642C17.0238 38.536 17.2757 39.2349 17.7669 39.6443C18.2581 40.0495 18.8248 40.0123 18.9676 39.9957L24.274 40.004C24.7778 40.004 25.3656 39.9461 25.4747 39.5078C25.5629 39.1398 25.2438 38.751 24.4084 38.2052C24.0641 37.9819 23.7157 37.7875 23.5184 37.6842L23.531 35.9639V35.8771C23.8626 35.7778 24.1859 35.6703 24.4965 35.5587C24.8324 35.4387 25.1515 35.3105 25.4663 35.1741C25.5167 35.1534 25.5713 35.1286 25.6216 35.1038V35.7241C25.6216 36.6958 25.8735 37.3947 26.3647 37.8041C26.8559 38.2093 27.4227 38.1762 27.5654 38.1556L32.007 38.1638C32.5108 38.1638 33.0986 38.1059 33.2077 37.6676C33.3001 37.2996 32.981 36.9109 32.1414 36.365C31.7971 36.1417 31.4487 35.9474 31.2514 35.8398L31.264 29.9099V29.3682C31.4655 28.7852 31.6082 28.169 31.6922 27.5281C31.73 27.2386 31.7593 26.945 31.7803 26.6555C32.0154 23.3928 31.2766 20.0722 30.5755 17.7813C29.9499 15.7344 29.2572 14.1465 28.9508 13.489C30.8022 13.0258 34.2405 12.9555 35.5251 12.9307C36.8727 12.9059 37.8215 12.6082 38.3379 12.0541C38.5646 11.8101 38.6611 11.5702 38.6989 11.3966C40.8945 11.227 42.2253 10.7266 42.7543 9.88306C43.531 8.63422 42.3219 7.08765 41.604 6.16136L41.6166 6.15723ZM7.87186 30.799C7.85506 31.0347 7.82568 31.2704 7.7753 31.5061C7.72072 31.7625 7.63676 32.0354 7.52761 32.3208C7.35129 32.7674 7.10779 33.1768 6.80972 33.5034L6.17161 34.2106L5.57547 34.8681L5.14726 35.3436L4.65187 35.8895L2.81308 37.9199L2.42685 38.3458L2.24633 37.7131L2.17496 37.4691L1.31014 34.4297L1.12123 33.764L5.31518 28.9423C5.68882 28.5081 6.12123 28.2683 6.51585 28.2559C6.88949 28.2228 7.16657 28.4254 7.36388 28.6776C7.36388 28.6776 7.94742 29.4427 7.87606 30.7783C7.87606 30.7825 7.87606 30.7907 7.87606 30.7949L7.87186 30.799ZM25.3404 0.806249C26.0289 0.909629 27.0574 1.69532 28.1028 4.78433C27.9516 4.78847 27.7963 4.80087 27.6452 4.82568C27.3555 3.85804 26.3185 1.90208 25.3278 1.90208C24.9122 1.90208 24.6351 2.022 24.4546 2.17914C24.2782 1.90622 24.1019 1.66637 23.9256 1.45548C24.1733 1.18669 24.7064 0.707004 25.3446 0.802114L25.3404 0.806249ZM25.2564 3.65955C25.2564 3.65955 25.2438 3.65955 25.2396 3.65955C25.0885 3.3246 24.9373 3.01446 24.782 2.7374C24.8156 2.65469 24.929 2.50583 25.3194 2.50583C25.5083 2.50583 25.8945 2.78289 26.3815 3.57271C26.688 4.06894 26.9231 4.59825 27.0364 4.94974C27.007 4.95801 26.9818 4.96628 26.9525 4.97455C26.8643 4.99936 26.7803 5.02831 26.7006 5.06139C26.604 4.65614 26.4235 4.30878 26.1926 4.05653C26.1296 4.13924 26.0499 4.18886 25.9575 4.18886C25.7686 4.18886 25.6175 3.97796 25.6175 3.71744C25.6175 3.70504 25.6175 3.69263 25.6175 3.68023C25.4957 3.64715 25.374 3.63888 25.2522 3.65542L25.2564 3.65955ZM13.0986 26.089L13.1783 26.0022C13.2077 26.2585 13.2833 26.486 13.4176 26.6845C13.5729 26.916 13.7955 27.0897 14.0809 27.2138L11.3773 30.34C11.3311 29.9637 11.2388 29.6081 11.096 29.2855C10.9911 29.0539 10.8651 28.8472 10.7182 28.6776L13.0986 26.089ZM14.74 27.3916C14.908 27.4164 15.0843 27.4288 15.2774 27.4288C15.332 27.4288 15.3907 27.4288 15.4495 27.4288C15.4159 27.5032 15.3824 27.5777 15.3446 27.6521C14.6771 29.0457 13.8626 30.2656 12.9138 31.2704C12.5318 31.6715 12.133 32.0396 11.7132 32.3663C11.5033 32.5317 11.285 32.6888 11.0625 32.8335C11.1422 32.6226 11.2094 32.3993 11.2598 32.1802C11.3311 31.8659 11.3815 31.5475 11.3983 31.2332L14.7358 27.3999L14.74 27.3916ZM10.9533 36.088C10.8525 36.0797 10.756 36.0756 10.6552 36.0673C10.651 36.0673 10.6426 36.0673 10.6384 36.0673C10.4243 36.0507 10.206 36.0342 9.98773 36.0135C9.76942 35.9928 9.55112 35.9763 9.33281 35.9556C9.1397 35.9391 8.95078 35.9184 8.75767 35.9019L8.87941 35.7695L10.1766 34.3388C10.3152 34.1858 10.4411 34.0203 10.5545 33.8467C10.8358 33.6978 11.1086 33.5324 11.3773 33.3587C12.0868 32.8956 12.7459 32.3332 13.363 31.684C14.3748 30.6129 15.2522 29.2897 15.9617 27.7596C16.0247 27.6314 16.0834 27.4991 16.138 27.3668C16.4277 27.3254 16.73 27.2634 17.0532 27.1807C18.7703 26.7424 20.7938 25.7913 22.7543 24.4969C22.8425 24.439 22.9306 24.377 23.023 24.3191C23.1615 24.224 23.1951 24.0379 23.1028 23.9015C23.0062 23.765 22.8173 23.7319 22.6829 23.8229C22.5948 23.8808 22.5108 23.9387 22.4227 23.9966C20.5167 25.2495 18.5604 26.1758 16.9063 26.5976C15.3782 26.9905 14.2866 26.8995 13.9214 26.3578C13.5436 25.8037 13.8626 24.6872 14.7694 23.3763C15.777 21.929 17.4017 20.4031 19.2363 19.1956C19.7694 18.8482 20.311 18.5174 20.8483 18.2197C20.9953 18.137 21.0499 17.955 20.9659 17.8144C20.8819 17.6697 20.6972 17.6201 20.5545 17.6986C20.0003 18.0046 19.442 18.3437 18.9004 18.6994C18.5981 18.8978 18.3001 19.1046 18.0146 19.3196C18.0146 19.3072 18.0146 19.299 18.0146 19.2866C18.0986 18.0915 18.1154 16.8675 18.0566 15.6393C18.2287 15.693 18.4092 15.7344 18.5939 15.7716C19.1355 15.8833 19.7065 15.9288 20.2816 15.9288C21.3689 15.9288 22.4898 15.7592 23.531 15.5111C23.7115 16.1727 24.1439 17.9509 24.2698 20.188C24.421 22.7891 24.1775 26.5604 22.1708 29.7693C20.1557 32.9989 16.7426 35.0955 12.0238 36.0094C11.625 36.0756 11.0667 36.0921 10.9449 36.0921L10.9533 36.088ZM24.8492 39.3341C24.7694 39.3589 24.6057 39.392 24.2824 39.392L18.955 39.3837C18.955 39.3837 18.9214 39.3837 18.9046 39.3879C18.8878 39.3879 18.4974 39.4458 18.1657 39.1687C17.8299 38.8834 17.6494 38.3293 17.6494 37.5601V36.8447C17.8677 36.8323 18.086 36.8199 18.3001 36.8034C18.5058 36.7868 18.7115 36.7703 18.9172 36.7496C20.2606 36.6214 21.5285 36.4064 22.7039 36.1045C22.7753 36.088 22.8467 36.0673 22.918 36.0507V36.1293L22.9054 37.862C22.9054 37.9778 22.9684 38.0811 23.0734 38.1349C23.9004 38.5567 24.6771 39.086 24.8492 39.3382V39.3341ZM32.578 37.4939C32.4982 37.5187 32.3345 37.5518 32.0154 37.5518L27.5528 37.5394C27.5528 37.5394 27.5192 37.5394 27.5024 37.5436C27.4856 37.5436 27.0952 37.6015 26.7635 37.3203C26.4277 37.0349 26.2472 36.4808 26.2472 35.7117V34.7978C26.3437 34.7481 26.4445 34.6944 26.541 34.6448C27.9138 33.9087 29.0347 32.9948 29.8744 31.9321C30.1683 31.564 30.4243 31.1712 30.651 30.7659L30.6384 36.0135C30.6384 36.1293 30.7014 36.2327 30.8064 36.2864C31.6334 36.7082 32.4101 37.2376 32.5822 37.4898L32.578 37.4939ZM29.3706 16.1148C28.7619 17.1404 26.2724 18.017 26.2724 18.017C28.2833 17.8434 29.2992 17.4009 29.7316 17.1528C29.8156 17.4092 29.9038 17.678 29.9877 17.955C30.1011 18.323 30.2144 18.72 30.3236 19.1336C30.4243 19.5223 30.5251 19.9317 30.6217 20.3576C30.7392 20.8993 30.8483 21.4658 30.9407 22.0447C30.9449 22.082 30.9533 22.115 30.9575 22.1523C30.1515 23.062 27.8131 23.6864 27.8131 23.6864C29.5301 23.6699 30.5461 23.4094 31.0876 23.1943C31.1548 23.8188 31.1968 24.4556 31.2052 25.0965C31.2136 25.5101 31.2052 25.9277 31.18 26.3454C31.159 26.7175 31.1254 27.0856 31.0792 27.4536C31.0331 27.8092 30.9701 28.1566 30.8861 28.4916C29.9835 29.2814 27.3219 29.3227 27.3219 29.3227C28.8878 29.699 29.908 29.7114 30.5083 29.6536C30.1934 30.4186 29.7652 31.1216 29.2279 31.7667C28.8962 32.1636 28.5184 32.5358 28.1028 32.8832C27.4688 33.4125 26.7384 33.8839 25.9113 34.2974C25.5377 34.4835 25.1473 34.6572 24.7358 34.8226C24.2866 35.0004 23.8164 35.1617 23.3295 35.3064C23.3127 35.3105 23.2959 35.3147 23.2791 35.3229C23.0944 35.3767 22.9054 35.4305 22.7123 35.4801C21.541 35.7902 20.2732 36.0094 18.9214 36.1417C18.7199 36.1624 18.51 36.1789 18.3043 36.1955C17.5108 36.2575 16.688 36.2864 15.8442 36.2864C15.2018 36.2864 14.4923 36.2699 13.7367 36.241C17.8215 35.1493 20.8358 33.0858 22.7081 30.0795C23.6317 28.5991 24.2782 26.883 24.6267 24.9849C24.9038 23.4714 24.9919 21.838 24.8954 20.1301C24.761 17.831 24.3286 16.0445 24.1397 15.354C26.0541 14.8371 27.6074 14.1175 28.0146 13.8446C28.1112 13.7826 28.2287 13.7205 28.3672 13.6668C28.5562 14.0679 28.9424 14.9363 29.3748 16.1107L29.3706 16.1148ZM42.2337 9.56051C41.8727 10.1394 40.672 10.83 36.9818 10.8507C36.9315 10.8507 36.8769 10.8507 36.8265 10.8507C33.0062 10.8507 27.2547 10.1477 19.7316 8.75828C19.908 8.47709 20.206 8.32822 20.2102 8.32408C20.3614 8.24965 20.4243 8.0677 20.353 7.91883C20.2816 7.76583 20.0969 7.7038 19.9415 7.77823C19.9122 7.79064 19.1901 8.14213 19.0222 8.8782C18.9046 9.38683 19.0767 9.93268 19.5343 10.4992C19.5973 10.5736 19.6855 10.615 19.7778 10.615C19.845 10.615 19.9122 10.5943 19.9709 10.5488C20.1053 10.4455 20.1263 10.2511 20.0213 10.1229C19.803 9.84998 19.6687 9.59359 19.6267 9.35789C27.1876 10.7556 32.9726 11.4627 36.8307 11.4627C36.8853 11.4627 36.9357 11.4627 36.9902 11.4627C37.3597 11.4627 37.7081 11.4503 38.044 11.4379C38.002 11.5165 37.939 11.6074 37.8425 11.6984C37.5528 11.9713 36.9189 12.298 35.5251 12.327C31.0247 12.4138 28.6023 12.7322 27.6703 13.3525C26.9567 13.8281 22.1834 15.8791 18.7283 15.1761C18.4806 15.1265 18.2497 15.0645 18.0272 14.9859C18.0146 14.9859 18.002 14.9777 17.9894 14.9735C17.7921 14.9032 17.6074 14.8247 17.4311 14.7337C17.4227 14.7337 17.4143 14.7254 17.4101 14.7213C16.8139 14.4111 16.3395 13.9811 15.9869 13.4394C14.3034 10.8383 14.6813 9.00639 15.0591 8.14213C15.3446 7.48463 15.819 6.95532 16.3731 6.63691C16.4361 6.59969 16.4991 6.56661 16.5662 6.53353C16.5746 6.5294 16.583 6.52526 16.5914 6.52113C16.604 6.51699 16.6124 6.51285 16.625 6.50458C16.6502 6.49218 16.6754 6.47977 16.7048 6.46737C16.7048 6.46737 16.709 6.46737 16.7132 6.46323C16.7468 6.44669 16.7845 6.43429 16.8181 6.41775C16.9735 6.35572 17.1288 6.30196 17.2925 6.26061C18.4428 5.95874 19.8114 6.13655 21.0205 6.44669C21.7929 6.64518 22.5024 6.89743 23.0524 7.12073C23.7367 7.39366 24.1733 7.61696 24.1901 7.62523C24.2363 7.65004 24.2866 7.65831 24.3328 7.65831C24.442 7.65831 24.5511 7.60042 24.6057 7.49704C24.6813 7.35644 24.6309 7.1869 24.5007 7.10006C24.5007 6.87675 24.4839 6.47564 24.4336 5.98768C24.4084 5.7313 24.3706 5.44597 24.3244 5.15237C24.1355 4.03999 23.7493 2.77875 22.96 2.14606C22.4856 1.76149 21.9189 1.63743 21.2766 1.77389C20.735 1.88968 20.3278 2.17501 20.0591 2.62575C19.5175 3.53136 19.7065 4.87944 19.8618 5.58657C19.4462 5.52867 19.0264 5.49559 18.6107 5.49559C18.2203 5.49559 17.8383 5.52867 17.4646 5.59897C17.7627 4.24262 18.7955 0.616029 21.3689 0.616029C21.3857 0.616029 21.3983 0.616029 21.4109 0.616029C21.4151 0.616029 21.9567 0.562271 22.7039 1.12466C23.2665 1.54645 24.0054 2.3735 24.7106 3.99037C24.9583 4.56103 25.206 5.23094 25.4369 6.01249C25.4663 6.1076 25.5419 6.18617 25.6384 6.21512C25.714 6.23993 25.7896 6.2358 25.8609 6.20271C25.8819 6.19444 25.9071 6.18204 25.9281 6.1655C25.9323 6.1655 26.2598 5.91325 26.7845 5.69822C26.9021 5.64859 27.028 5.60311 27.1666 5.56175C27.2673 5.52867 27.3723 5.50386 27.473 5.48318H27.4814H27.4898C27.4898 5.48318 27.4898 5.48318 27.494 5.48318C27.8299 5.40875 28.1573 5.38394 28.4806 5.40875C28.4806 5.40875 28.5142 5.40875 28.531 5.40875C28.8416 5.4377 29.1439 5.508 29.4378 5.62378C29.2992 5.70649 29.2195 5.76438 29.2111 5.77265C29.0767 5.87603 29.0515 6.06625 29.1523 6.19858C29.2573 6.3309 29.4504 6.35572 29.5847 6.25647C29.6519 6.20685 31.1128 5.1441 32.8215 6.0249C32.7207 6.09933 32.662 6.15309 32.6536 6.15723C32.5276 6.27301 32.5234 6.46323 32.6368 6.58729C32.6997 6.65345 32.7795 6.6824 32.8635 6.6824C32.939 6.6824 33.0146 6.65759 33.0734 6.59969C33.0734 6.59969 33.4512 6.26474 34.0389 6.09106C34.6519 5.90911 35.2648 5.95873 35.8735 6.2358C35.8358 6.25647 35.798 6.27715 35.7602 6.30196C34.6603 7.03803 34.782 8.79136 34.7904 8.8658C34.803 9.03121 34.9499 9.15526 35.1221 9.14286C35.2942 9.13045 35.4201 8.98572 35.4033 8.81617C35.4033 8.80377 35.3068 7.33576 36.1044 6.80646C36.4487 6.57488 36.9315 6.5418 37.5402 6.70307C37.578 6.71548 37.7921 6.78578 37.9222 6.85608C38.9382 7.38539 39.8324 7.41847 40.0255 7.41847H40.0633C40.2354 7.41433 40.3656 7.27374 40.3614 7.10419C40.353 6.93465 40.2144 6.80646 40.0423 6.81059C40.0339 6.81059 39.6519 6.81886 39.1061 6.66999C39.274 6.32263 39.5847 5.82641 39.9751 5.76024C40.374 5.69408 40.8022 6.12001 41.0876 6.48391L41.1212 6.5294C41.7468 7.33163 42.7921 8.67144 42.2379 9.56051H42.2337ZM23.2875 5.61138C23.2329 5.27229 23.1195 4.96628 22.9684 4.71403C22.9054 4.82568 22.8089 4.89598 22.6997 4.89598C22.5108 4.89598 22.3597 4.68509 22.3597 4.42457C22.3597 4.31705 22.3849 4.22194 22.4269 4.14337C22.2295 4.02345 22.0154 3.96969 21.8055 4.00278C21.1926 4.09789 20.798 4.87117 20.8735 5.77265C20.756 5.74784 20.6342 5.71889 20.5125 5.69408C20.3866 5.19372 20.0843 3.7588 20.5839 2.92762C20.7644 2.62575 21.0331 2.43966 21.4025 2.36109C21.8559 2.26598 22.2379 2.34455 22.5654 2.60921C23.6023 3.44452 23.8248 5.77679 23.8668 6.79405C23.6947 6.71962 23.4974 6.63278 23.2707 6.5418C23.3337 6.26061 23.3421 5.93806 23.2875 5.61138Z" fill="#009AAD"/>
<path d="M62.0905 33.6235C62.5145 33.5077 62.8335 33.1934 62.8335 32.7303C62.8335 31.9405 62.2038 31.5352 61.3474 31.5352H60.0544C59.9326 31.5352 59.8906 31.5766 59.8906 31.6965V35.9185H60.5497V33.9295H61.402C62.0191 33.9295 62.0485 33.9998 62.145 34.9509C62.1702 35.2445 62.1744 35.6249 62.2752 35.9185H63.0308C62.8083 35.5422 62.8545 35.2693 62.779 34.5746C62.7328 34.0866 62.5732 33.7475 62.0989 33.6235H62.0905ZM61.2592 33.3795H60.5413V32.0935H61.2928C61.8973 32.0935 62.1534 32.2423 62.1534 32.7261C62.1534 33.21 61.8302 33.3795 61.2592 33.3795Z" fill="#009AAD"/>
<path d="M64.4631 33.9419H66.4782V33.3919H64.4631V32.0935H66.4866V31.5435H63.9593C63.8376 31.5435 63.7998 31.5766 63.7998 31.7006V35.7697C63.7998 35.8937 63.8334 35.9268 63.9593 35.9268H66.579V35.3768H64.4589V33.946L64.4631 33.9419Z" fill="#009AAD"/>
<path d="M68.711 34.9798L67.5356 31.5435H66.8135L68.3374 35.7945C68.3668 35.8689 68.4088 35.9268 68.4969 35.9268H68.9335C69.0217 35.9268 69.0637 35.8689 69.0931 35.7945L70.617 31.5435H69.8907L68.7152 34.9798H68.711Z" fill="#009AAD"/>
<path d="M71.7047 31.5228H71.0498V35.9227H71.7047V31.5228Z" fill="#009AAD"/>
<path d="M73.3671 33.9419H75.378V33.3919H73.3671V32.0935H75.3906V31.5435H72.8675C72.7458 31.5435 72.708 31.5766 72.708 31.7006V35.7697C72.708 35.8937 72.7416 35.9268 72.8675 35.9268H75.4872V35.3768H73.3671V33.946V33.9419Z" fill="#009AAD"/>
<path d="M80.0125 34.9095L79.0637 31.6799C79.0469 31.6096 78.9881 31.56 78.9126 31.56H78.4634C78.3752 31.56 78.3374 31.6014 78.3164 31.6758L77.3677 34.9095L76.4609 31.5393H75.7598L76.9856 35.7903C77.0066 35.8648 77.0486 35.9227 77.1368 35.9227H77.586C77.6699 35.9227 77.7245 35.8772 77.7455 35.7821L78.6943 32.5359L79.6431 35.7862C79.6682 35.8606 79.706 35.9185 79.7984 35.9185H80.2476C80.3315 35.9185 80.3819 35.873 80.4071 35.7779L81.6456 31.5352H80.9319L80.0209 34.9054L80.0125 34.9095Z" fill="#009AAD"/>
<path d="M87.8293 31.5393H87.3213C87.2079 31.5393 87.1618 31.5848 87.1324 31.6717L86.045 34.74L85.9023 35.228L85.7596 34.74L84.6722 31.6717C84.6429 31.5848 84.5967 31.5393 84.4833 31.5393H83.9795C83.8578 31.5393 83.8242 31.5724 83.8242 31.6965V35.9227H84.4372V32.4325L84.5085 32.7675L85.5623 35.7986C85.5832 35.8813 85.6378 35.9185 85.7134 35.9185H86.0828C86.1584 35.9185 86.213 35.8772 86.2424 35.7986L87.2919 32.7592L87.3675 32.4243V35.9185H87.9804V31.6923C87.9804 31.5683 87.951 31.5352 87.8293 31.5352V31.5393Z" fill="#009AAD"/>
<path d="M90.6252 31.5393H90.1844C90.1089 31.5393 90.0585 31.5807 90.0375 31.6593L88.417 35.9227H89.1139L89.5295 34.7979H91.2843L91.7041 35.9227H92.3968L90.7806 31.6593C90.7554 31.5766 90.705 31.5393 90.6252 31.5393ZM89.731 34.2479L90.3188 32.631L90.4069 32.354L90.4951 32.631L91.0828 34.2479H89.731Z" fill="#009AAD"/>
<path d="M92.0029 32.0893H93.317V35.9227H93.9677V32.0893H95.2691V31.5393H92.0029V32.0893Z" fill="#009AAD"/>
<path d="M96.4277 33.9419H98.4386V33.3919H96.4277V32.0935H98.4512V31.5435H95.9281C95.8021 31.5435 95.7686 31.5766 95.7686 31.7006V35.7697C95.7686 35.8937 95.8021 35.9268 95.9281 35.9268H98.5477V35.3768H96.4277V33.946V33.9419Z" fill="#009AAD"/>
<path d="M72.0234 15.1101V27.2304H78.0394V22.0407H79.1855V27.8424H81.6036V14.8041H79.1855V19.5968H78.0394V15.1101H72.0234ZM75.6171 24.894H74.4416V17.4465H75.6171V24.894Z" fill="#009AAD"/>
<path d="M84.9622 14.8041H82.5146V27.8424H84.9622V14.8041Z" fill="#009AAD"/>
<path d="M91.2557 14.9571C89.9626 14.9571 88.9467 15.474 88.2036 16.5078C87.4606 17.5416 87.0869 19.0965 87.0869 21.1723C87.0869 23.2482 87.4606 24.8031 88.2036 25.8369C88.9467 26.8707 89.9668 27.3876 91.2557 27.3876C92.5445 27.3876 93.5605 26.8707 94.2993 25.8369C95.0382 24.8031 95.4076 23.2482 95.4076 21.1723C95.4076 19.0965 95.0382 17.5416 94.2993 16.5078C93.5605 15.474 92.5445 14.9571 91.2557 14.9571ZM91.2557 25.0181C90.2019 25.0181 89.673 23.7362 89.673 21.1723C89.673 18.6085 90.2019 17.3266 91.2557 17.3266C91.7301 17.3266 92.1079 17.6285 92.3934 18.2281C92.6747 18.8277 92.8174 19.8118 92.8174 21.1765C92.8174 23.7403 92.2968 25.0222 91.2557 25.0222V25.0181Z" fill="#009AAD"/>
<path d="M99.5005 14.8041H96.8809V27.8424H99.5005V14.8041Z" fill="#009AAD"/>
<path d="M115.004 25.014H101.612V27.3793H115.004V25.014Z" fill="#009AAD"/>
<path d="M114.274 17.3679V15.1101H102.355V23.8106H114.274V21.5486H104.942V20.5272H114.274V18.3893H104.942V17.3679H114.274Z" fill="#009AAD"/>
<path d="M57.6572 14.9571V21.7513H69.5002V14.9571H66.9435V16.1191H60.2181V14.9571H57.6614H57.6572ZM66.9393 18.3314V19.5058H60.2139V18.3314H66.9393Z" fill="#009AAD"/>
<path d="M67.4683 25.7335H64.8486V28.1443H67.4683V25.7335Z" fill="#009AAD"/>
<path d="M70.273 25.0925V22.7561H56.8809V25.0925H59.6852V28.1443H62.3049V25.0925" fill="#009AAD"/>
<path d="M54.7731 14.8041H52.1534V24.9106H51.4565H45.26H45.1635V22.2806H50.2307V15.106H42.5312V17.43H47.6278V19.9938H42.5606V27.2304H52.1534V27.8383H54.7731" fill="#009AAD"/>
</g>
<defs>
<clipPath id="clip0_1_394">
<rect width="115" height="40" fill="white"/>
</clipPath>
</defs>
</svg>
