<svg width="20" height="20" viewBox="0 0 20 20" fill="none" xmlns="http://www.w3.org/2000/svg">
<path fill-rule="evenodd" clip-rule="evenodd" d="M9.99967 1.66666C6.31777 1.66666 3.33301 5.00214 3.33301 8.74999C3.33301 12.4685 5.46077 16.5103 8.78059 18.062C9.55442 18.4237 10.4449 18.4237 11.2188 18.062C14.5386 16.5103 16.6663 12.4685 16.6663 8.74999C16.6663 5.00214 13.6816 1.66666 9.99967 1.66666ZM9.99967 9.99999C10.9202 9.99999 11.6663 9.25382 11.6663 8.33332C11.6663 7.41285 10.9202 6.66666 9.99967 6.66666C9.07917 6.66666 8.33301 7.41285 8.33301 8.33332C8.33301 9.25382 9.07917 9.99999 9.99967 9.99999Z" fill="black"/>
</svg>
